<svg xmlns="http://www.w3.org/2000/svg" xmlns:xlink="http://www.w3.org/1999/xlink" width="446" height="310" viewBox="0 0 446 310">
  <defs>
    <clipPath id="clip-enemy-boss-Virexon">
      <rect width="446" height="310"/>
    </clipPath>
  </defs>
  <g id="enemy-boss-Virexon" clip-path="url(#clip-enemy-boss-Virexon)">
    <g id="enemy-boss-Virexon-2" data-name="enemy-boss-Virexon" transform="translate(-22.772 -5.354)">
      <g id="Subtraction_24" transform="translate(26.201 1.586)">
        <path id="Path_377" data-name="Path 377" d="M137.015,298.768l-14.3-.693,7.231-56.848,7.148-10.774c-1.5-.341-2.949-.69-4.318-1.037l-2.633,1.962L87.035,268.684l-10.509-9.463L113.317,222.9c-.527-.234-.99-.446-1.416-.646l-26.018,24.46L51.716,263.525,65.65,242.768l13.3-12.018-18.559,7.286,9.2-15.5,18.079-14.4a118.98,118.98,0,0,1-26.119-17.747L46.579,203.712,21.971,250.063l-10.4-7.465,22.4-50.242L51.505,179.29a55.066,55.066,0,0,1-9.466-19.836l-13.95-2.839-2.625-11.878,15.305,2.235a52.218,52.218,0,0,1,6.167-22.545A81.071,81.071,0,0,1,63.078,103.57,135.551,135.551,0,0,1,87.86,85.179a206.153,206.153,0,0,1,32.082-15.146l-3.481-4.167,37.328-52.025,80.152.807,21.913,21.141a56.336,56.336,0,0,1,19.567-3.377c1.465,0,2.957.052,4.432.155A60.226,60.226,0,0,1,296.009,35.9a46.976,46.976,0,0,1,12.9,6.917,30.505,30.505,0,0,1,8.358,9.506,20.133,20.133,0,0,1,2.532,11.1,18.892,18.892,0,0,1-.234,1.926c4.054,1.392,8.021,2.9,11.788,4.468l32.053-11.644L348.994,78.425c.791.45,1.541.887,2.229,1.3l3.748.776,59.051,2.9L375.54,99.223a70.917,70.917,0,0,1,4.639,5.805l40.579,2.864-31.19,18.414a47.1,47.1,0,0,1,.761,6.319,48.8,48.8,0,0,1-2.4,17.7l11.971-5,.138,25.494-6.355,8.263,8.822,4.841,27.529,47.625-9.568,8.512-29.317-43.525-7.183-4.821-4.377,5.691L349.578,200c-2.941,3.852-7.6,7.634-13.851,11.242l40.387,32.28-9.463,10.509-28.275-19.706L300.8,243.909l19.908,31.555-12.668,6.673-32.315-43.368-6.267-7.043a401.765,401.765,0,0,1-43.926,4.667c-7.364.386-14.761.582-21.984.582a338.758,338.758,0,0,1-50.34-3.506l-5.237,12.339Zm180.041-79.01a227.067,227.067,0,0,1-26.564,7.812l2.752,4.362,32.055-6.721-5.419-3.777ZM182.488,131.2a11.1,11.1,0,0,0-2.953.366,4.527,4.527,0,0,0-3.6,3.416,8.928,8.928,0,0,0,1.643,6.375,9.272,9.272,0,0,0,5.386,4.156,7.726,7.726,0,0,0,1.612.161,11.759,11.759,0,0,0,5.26-1.353c2.335-1.205,3.891-2.916,4.269-4.693.459-2.16-.907-3.931-2.133-5.037a13.633,13.633,0,0,0-6.044-3.013A16.642,16.642,0,0,0,182.488,131.2ZM77.88,114.862a10.426,10.426,0,0,0-2.519.3,17.791,17.791,0,0,0-9.407,6.877,17.444,17.444,0,0,0-2.678,5.257,9.778,9.778,0,0,0-.248,5.154,7.48,7.48,0,0,0,2.487,3.924,12.3,12.3,0,0,0,4.526,2.33,20.849,20.849,0,0,0,5.829.794,23.931,23.931,0,0,0,14.93-5.322,9.778,9.778,0,0,0,2.66-3.656,7.132,7.132,0,0,0,.251-4.4c-.775-3.11-3.461-6.319-7.185-8.582a19.036,19.036,0,0,0-5.63-2.318A13.8,13.8,0,0,0,77.88,114.862Zm39.432-15.324a24.823,24.823,0,0,0-13.637,4.689,23.532,23.532,0,0,0-5.718,5.523,13.25,13.25,0,0,0-2.588,6.493,10.16,10.16,0,0,0,1.458,6.146,16.594,16.594,0,0,0,4.757,4.97A30.014,30.014,0,0,0,115.8,132.47c1.136.1,2.274.149,3.384.149a28.047,28.047,0,0,0,10.789-1.929,13.238,13.238,0,0,0,5.02-3.511,9.714,9.714,0,0,0,2.274-5.553c.378-4.315-1.637-9.588-5.389-14.107a25.649,25.649,0,0,0-6.152-5.42,16.17,16.17,0,0,0-7.05-2.5C118.235,99.558,117.775,99.538,117.312,99.538Zm38.18,18.339a11.084,11.084,0,0,0-2.956.367,4.522,4.522,0,0,0-3.6,3.415,8.928,8.928,0,0,0,1.643,6.375,9.269,9.269,0,0,0,5.386,4.156,7.726,7.726,0,0,0,1.612.161,11.759,11.759,0,0,0,5.26-1.353c2.335-1.205,3.891-2.916,4.269-4.693.459-2.161-.906-3.931-2.133-5.036a13.635,13.635,0,0,0-6.044-3.014,16.632,16.632,0,0,0-3.438-.378Z"/>
      </g>
      <path id="Path_378" data-name="Path 378" d="M110.706,189.023c-19.066,22-18.551,23-44.712,36.078-2.15,1.075-15.561,4.461-25.285,14.184" fill="none" stroke="#000" stroke-linecap="round" stroke-linejoin="round" stroke-miterlimit="1.5" stroke-width="8" fill-rule="evenodd"/>
      <path id="Path_379" data-name="Path 379" d="M201.671,229.11C199.8,240.353,176,254.716,175.153,264.879c-.154,1.845-14.894,20.012-15.726,22.51" fill="none" stroke="#000" stroke-linecap="round" stroke-linejoin="round" stroke-miterlimit="1.5" stroke-width="8" fill-rule="evenodd"/>
      <path id="Path_380" data-name="Path 380" d="M272.285,222.017c.852,5.109,1.909,5.706,2.776,8.018,6.932,18.487,16.743,20.306,42.244,38.853,7.4,5.378,8.958.778,17.268,4.933" fill="none" stroke="#000" stroke-linecap="round" stroke-linejoin="round" stroke-miterlimit="1.5" stroke-width="8" fill-rule="evenodd"/>
      <path id="Path_381" data-name="Path 381" d="M364.176,202.9c3.7,1.85,6.468,11.539,6.784,12.643.673,2.357,2.165,1.555,14.8,26.827" fill="none" stroke="#000" stroke-linecap="round" stroke-linejoin="round" stroke-miterlimit="1.5" stroke-width="8" fill-rule="evenodd"/>
      <path id="Path_382" data-name="Path 382" d="M397.17,191.182c.061.184,15.4,30.274,22.2,32.994,11.1,4.44,26.626,7.545,28.985,8.017" fill="none" stroke="#000" stroke-linecap="round" stroke-linejoin="round" stroke-miterlimit="1.5" stroke-width="8" fill-rule="evenodd"/>
      <path id="Path_383" data-name="Path 383" d="M155.11,290.473c-9.82-19.639-12.4-19.1-11.718-29.294.576-8.638,9.559-7.167,9.559-58.28" fill="none" stroke="#000" stroke-linecap="round" stroke-linejoin="round" stroke-miterlimit="1.5" stroke-width="8" fill-rule="evenodd"/>
      <path id="Path_384" data-name="Path 384" d="M447.741,228.8c-.784-36.814-2.4-46.1-5.242-46.87-20.127-5.489-19.449-6.949-38.237-16.343" fill="none" stroke="#000" stroke-linecap="round" stroke-linejoin="round" stroke-miterlimit="1.5" stroke-width="8" fill-rule="evenodd"/>
      <path id="Path_385" data-name="Path 385" d="M43.793,241.752c.856-11.134,12.9-59.325,14.184-64.447,2.979-11.917,5.783-10.818,18.193-11.409" fill="none" stroke="#000" stroke-linecap="round" stroke-linejoin="round" stroke-miterlimit="1.5" stroke-width="8" fill-rule="evenodd"/>
      <path id="Path_386" data-name="Path 386" d="M328.1,47.487c3.206-12.824,14.448-4.317,51.8-4.317,5.793,0,29.941-6.1,33.3-6.475" fill="none" stroke="#000" stroke-linecap="round" stroke-linejoin="round" stroke-miterlimit="1.5" stroke-width="8" fill-rule="evenodd"/>
      <path id="Path_387" data-name="Path 387" d="M332.415,57.354c1.638-.409,24.459-13.666,35.461-24.668,8.469-8.469,9.46-7.254,16.96-8.326" fill="none" stroke="#000" stroke-linecap="round" stroke-linejoin="round" stroke-miterlimit="1.5" stroke-width="8" fill-rule="evenodd"/>
      <path id="Path_388" data-name="Path 388" d="M304.971,44.4c19.617-14.712,19.653-16.218,44.1-17.576,2.9-.161,6.111-.339,33.3,14.493,5.654,3.084,5.818,2.248,12.026,4.317" fill="none" stroke="#000" stroke-linecap="round" stroke-linejoin="round" stroke-miterlimit="1.5" stroke-width="4" fill-rule="evenodd"/>
      <path id="Path_389" data-name="Path 389" d="M117.49,193.648c-2.211,4.422-9,18-47.795,39.162-10.346,5.643-18.81,5.4-24.669,8.325" fill="none" stroke="#000" stroke-linecap="round" stroke-linejoin="round" stroke-miterlimit="1.5" stroke-width="4" fill-rule="evenodd"/>
      <path id="Path_390" data-name="Path 390" d="M234.357,225.409c-13.385,1.673-44.741,30.388-62.9,39.47-4.169,2.085-8.708,1-12.642,4.934" fill="none" stroke="#000" stroke-linecap="round" stroke-linejoin="round" stroke-miterlimit="1.5" stroke-width="4" fill-rule="evenodd"/>
      <path id="Path_391" data-name="Path 391" d="M251.009,227.259c.961,1.443,9.081,27.1,29.294,31.144,15.447,3.09,15.5,2.019,31.144,4.626" fill="none" stroke="#000" stroke-linecap="round" stroke-linejoin="round" stroke-miterlimit="1.5" stroke-width="4" fill-rule="evenodd"/>
      <path id="Path_392" data-name="Path 392" d="M334.573,75.856c23.04-21.684,85.07-35.042,87.882-43.478.309-.926,6.517-1.208,7.093-1.234a61.163,61.163,0,0,0,8.017-1.85" fill="none" stroke="#000" stroke-linecap="round" stroke-linejoin="round" stroke-miterlimit="1.5" stroke-width="4" fill-rule="evenodd"/>
      <path id="Path_393" data-name="Path 393" d="M294.179,50.262c35.915-23.423,61.345-9.5,74.314-9.25,18.447.348,19.56-1.386,21.585,2.158,5.293,9.263,23.578,17.46,25.9,18.5a21.615,21.615,0,0,1,4.934-1.541" fill="none" stroke="#000" stroke-linecap="round" stroke-linejoin="round" stroke-miterlimit="1.5" stroke-width="4" fill-rule="evenodd"/>
      <path id="Path_394" data-name="Path 394" d="M322.239,60.13c13.517-3.38,18.912.617,55.5-26.827.989-.743,18.737-1,23.126-2.467a49.381,49.381,0,0,1,9.868-1.85" fill="none" stroke="#000" stroke-linecap="round" stroke-linejoin="round" stroke-miterlimit="1.5" stroke-width="4" fill-rule="evenodd"/>
      <path id="Path_395" data-name="Path 395" d="M332.107,81.1c19-22.8,39.593-20.6,41.011-51.8" fill="none" stroke="#000" stroke-linecap="round" stroke-linejoin="round" stroke-miterlimit="1.5" stroke-width="4" fill-rule="evenodd"/>
      <path id="Path_396" data-name="Path 396" d="M419.988,162.2c10.039,2.151,9.442,3.313,17.885,8.942,3.153,2.1,3.644,10.452,3.7,11.41" fill="none" stroke="#000" stroke-linecap="round" stroke-linejoin="round" stroke-miterlimit="1.5" stroke-width="2" fill-rule="evenodd"/>
      <path id="Path_397" data-name="Path 397" d="M221.1,231.576c27.416,27.416,52.137,39.3,53.654,38.545.991-.495,25.535-23.693,29.6-41.32" fill="none" stroke="#000" stroke-linecap="round" stroke-linejoin="round" stroke-miterlimit="1.5" stroke-width="2" fill-rule="evenodd"/>
      <path id="Path_398" data-name="Path 398" d="M256.559,234.66c-1.269.846-11.967,18.248,15.726,10.792,18.4-4.954,32.115-18.98,31.144-21.893" fill="none" stroke="#000" stroke-linecap="round" stroke-linejoin="round" stroke-miterlimit="1.5" stroke-width="2" fill-rule="evenodd"/>
      <path id="Path_399" data-name="Path 399" d="M199.821,236.51c53.575,35.717,72.384,34.883,96.825,26.21,3.122-1.107,24.249-8.6,41.319,2.776" fill="none" stroke="#000" stroke-linecap="round" stroke-linejoin="round" stroke-miterlimit="1.5" stroke-width="2" fill-rule="evenodd"/>
      <path id="Path_400" data-name="Path 400" d="M345.366,217.084c-15.323,17.621-11.2,21.169-28.677,35.152" fill="none" stroke="#000" stroke-linecap="round" stroke-linejoin="round" stroke-miterlimit="1.5" stroke-width="2" fill-rule="evenodd"/>
      <path id="Path_401" data-name="Path 401" d="M344.749,67.222C347.665,57.017,414.87,46.068,420.914,37c6.713-10.069,9.157-5.859,21.276-5.859" fill="none" stroke="#000" stroke-linecap="round" stroke-linejoin="round" stroke-miterlimit="1.5" stroke-width="2" fill-rule="evenodd"/>
      <path id="Path_402" data-name="Path 402" d="M338.274,93.741c57.614-40.888,61.205-41.925,62.008-67.964,2.149-.408,21.28-4.046,26.8-5.425" fill="none" stroke="#000" stroke-linecap="round" stroke-linejoin="round" stroke-miterlimit="1.5" stroke-width="2" fill-rule="evenodd"/>
      <path id="Path_403" data-name="Path 403" d="M384.836,25.594c2.55.048,23.819.449,31.452,5.242,10.27,6.449,9.559,7.606,20.968,11.409" fill="none" stroke="#000" stroke-linecap="round" stroke-linejoin="round" stroke-miterlimit="1.5" stroke-width="2" fill-rule="evenodd"/>
      <path id="Path_404" data-name="Path 404" d="M375.585,27.135c9.221-4.61,22.926-6.5,24.977-6.783,7.26-1,6.873-1.983,13.876-4.317" fill="none" stroke="#000" stroke-linecap="round" stroke-linejoin="round" stroke-miterlimit="1.5" stroke-width="2" fill-rule="evenodd"/>
      <path id="Path_405" data-name="Path 405" d="M413.2,35.153c12.372,0,12.194-.012,24.668.308" fill="none" stroke="#000" stroke-linecap="round" stroke-linejoin="round" stroke-miterlimit="1.5" stroke-width="2" fill-rule="evenodd"/>
      <path id="Path_406" data-name="Path 406" d="M420.914,60.438c5.588-2.794,5.748-1.666,12.642-2.158" fill="none" stroke="#000" stroke-linecap="round" stroke-linejoin="round" stroke-miterlimit="1.5" stroke-width="2" fill-rule="evenodd"/>
      <path id="Path_407" data-name="Path 407" d="M415.98,63.522c8.8-4.4,9.786-2.694,16.651-9.559" fill="none" stroke="#000" stroke-linecap="round" stroke-linejoin="round" stroke-miterlimit="1.5" stroke-width="2" fill-rule="evenodd"/>
      <path id="Path_408" data-name="Path 408" d="M384.219,24.977c3.207-2.4,3.921-1.252,6.476-4.317,4.918-5.9,12.184-6.415,12.334-6.476" fill="none" stroke="#000" stroke-linecap="round" stroke-linejoin="round" stroke-miterlimit="1.5" stroke-width="2" fill-rule="evenodd"/>
      <path id="Path_409" data-name="Path 409" d="M391.928,197.04c3.1,7.748,6.829,10.909,9.559,14.185,5.272,6.326,12.032,15.188,37.62,21.585" fill="none" stroke="#000" stroke-linecap="round" stroke-linejoin="round" stroke-miterlimit="1.5" stroke-width="2" fill-rule="evenodd"/>
      <path id="Path_410" data-name="Path 410" d="M121.19,105.15c1.966,1.966-.281,3.224,16.035,30.836,8.744,14.8,13.3,22.838,16.959,24.668" fill="none" stroke="#000" stroke-linecap="round" stroke-linejoin="round" stroke-miterlimit="1.5" stroke-width="2" fill-rule="evenodd"/>
      <path id="Path_411" data-name="Path 411" d="M111.014,111.625c8.147,2.037,41.885,25.85,42.245,26.211" fill="none" stroke="#000" stroke-linecap="round" stroke-linejoin="round" stroke-miterlimit="1.5" stroke-width="2" fill-rule="evenodd"/>
    </g>
    <g id="Ellipse_132" data-name="Ellipse 132" transform="translate(149.5 32.406)" fill="#fff" stroke="#000" stroke-width="3">
      <circle cx="10.5" cy="10.5" r="10.5" stroke="none"/>
      <circle cx="10.5" cy="10.5" r="12" fill="none"/>
    </g>
    <g id="Ellipse_134" data-name="Ellipse 134" transform="translate(184.5 19.906)" fill="#fff" stroke="#000" stroke-width="3">
      <circle cx="10.5" cy="10.5" r="10.5" stroke="none"/>
      <circle cx="10.5" cy="10.5" r="12" fill="none"/>
    </g>
    <g id="Ellipse_135" data-name="Ellipse 135" transform="translate(277.5 42.906)" fill="#fff" stroke="#000" stroke-width="3">
      <circle cx="10.5" cy="10.5" r="10.5" stroke="none"/>
      <circle cx="10.5" cy="10.5" r="12" fill="none"/>
    </g>
    <g id="Ellipse_136" data-name="Ellipse 136" transform="translate(222.5 22.906)" fill="#fff" stroke="#000" stroke-width="3">
      <circle cx="10.5" cy="10.5" r="10.5" stroke="none"/>
      <circle cx="10.5" cy="10.5" r="12" fill="none"/>
    </g>
  </g>
</svg>
