<svg xmlns="http://www.w3.org/2000/svg" xmlns:xlink="http://www.w3.org/1999/xlink" width="28" height="28" viewBox="0 0 28 28">
  <defs>
    <clipPath id="clip-enemy-shot-1">
      <rect width="28" height="28"/>
    </clipPath>
  </defs>
  <g id="enemy-shot-1" clip-path="url(#clip-enemy-shot-1)">
    <path id="Subtraction_34" data-name="Subtraction 34" d="M-996.548,817.936a7.223,7.223,0,0,1-5.4-2.271,6.516,6.516,0,0,1-1.333-5.034,10.639,10.639,0,0,1,3.606-7.146,9.922,9.922,0,0,1,5.832-1.87,8.284,8.284,0,0,1,3.378.68,5.925,5.925,0,0,1,2.585,2.182,6.562,6.562,0,0,1,1.049,5.471,12.434,12.434,0,0,1-3.4,5.278A8.907,8.907,0,0,1-996.548,817.936Zm1.042-4.744a1.51,1.51,0,0,0-1.18.519,1.714,1.714,0,0,0-.077,2.457,2.1,2.1,0,0,0,1.674.786,1.741,1.741,0,0,0,1.076-.333,1.714,1.714,0,0,0,.527-1.239,2.029,2.029,0,0,0-.529-1.554A2.132,2.132,0,0,0-995.506,813.192Z" transform="translate(1010.217 -794.447)"/>
    <path id="Path_487" data-name="Path 487" d="M1044-778.216l6.025-7.295-.764,8.657Z" transform="translate(-911.633 925.186) rotate(-8)"/>
    <path id="Path_488" data-name="Path 488" d="M1039.331-775.669l-1.108,5.182L1027.949-771Z" transform="translate(-924.8 913.619) rotate(-7)"/>
    <path id="Path_489" data-name="Path 489" d="M1048.408-770.488l-4.163,2.966,9.93,4.838Z" transform="matrix(0.996, -0.087, 0.087, 0.996, -956.648, 876.502)"/>
  </g>
</svg>
