<svg xmlns="http://www.w3.org/2000/svg" xmlns:xlink="http://www.w3.org/1999/xlink" width="101" height="94" viewBox="0 0 101 94">
  <defs>
    <clipPath id="clip-enemy-orb">
      <rect width="101" height="94"/>
    </clipPath>
  </defs>
  <g id="enemy-orb" clip-path="url(#clip-enemy-orb)">
    <g id="enemy-orb-2" data-name="enemy-orb" transform="translate(-22.088 -24.052)">
      <g id="Subtraction_32" transform="translate(841.089 -881.002)">
        <path id="Path_422" data-name="Path 422" d="M-774.215,984.443a28.11,28.11,0,0,1-8.482-1.22,20.258,20.258,0,0,1-6.371-3.3c-1.178-.238-2.352-.518-3.489-.833A41.642,41.642,0,0,1-805,973.474a28.355,28.355,0,0,1-8.716-9.134A24.532,24.532,0,0,1-817,951.865a33.294,33.294,0,0,1,3.284-13.994,43.885,43.885,0,0,1,5.581-8.947A8.483,8.483,0,0,0-801.59,932a8.55,8.55,0,0,0,8.5-8.5,8.491,8.491,0,0,0-2.162-5.664A34.964,34.964,0,0,1-778.091,913a51.752,51.752,0,0,1,28.158,8.191,32.155,32.155,0,0,1,9.573,9.592,23.657,23.657,0,0,1,3.674,12.682,29.38,29.38,0,0,1-3.674,13.787,43.7,43.7,0,0,1-8.465,11,17.849,17.849,0,0,1-6.2,10.54,21.837,21.837,0,0,1-6.423,3.538,37.54,37.54,0,0,1-9.145,1.934C-771.827,984.382-773.047,984.443-774.215,984.443Zm-30.293-30.513a4.44,4.44,0,0,0-4.525,3.016,7.9,7.9,0,0,0,.545,6.111,5.237,5.237,0,0,0,3.275,2.761,10.549,10.549,0,0,0,2.6.32c2.449,0,5.4-.911,6.324-3.466a5.4,5.4,0,0,0-.639-4.71,8.314,8.314,0,0,0-4.2-3.371,9.983,9.983,0,0,0-3.377-.663Zm35.517-18.306,12.469,21.49c1.2-8.892-2.255-14.261-5.364-17.2A19.516,19.516,0,0,0-768.991,935.624Zm-40.894,7.115a4.261,4.261,0,0,0-2.644.858,8.98,8.98,0,0,0-2.84,3.786,4.708,4.708,0,0,0,.23,4.186,5.059,5.059,0,0,0,4.445,2.21,7.329,7.329,0,0,0,3.832-1.112,7.228,7.228,0,0,0,2.973-3.146,3.879,3.879,0,0,0-.358-3.678,7.072,7.072,0,0,0-5.639-3.1Zm43.872-12.578,16.9,22.3c.121-10.1-4.481-15.626-8.364-18.483a21.913,21.913,0,0,0-8.537-3.82Zm-36.8,5.621a2.575,2.575,0,0,0-1.591.516c-1.508,1.177-2.508,3.293-1.57,4.8a3.045,3.045,0,0,0,2.674,1.329,4.366,4.366,0,0,0,2.306-.669,4.344,4.344,0,0,0,1.787-1.892,2.334,2.334,0,0,0-.215-2.213,4.255,4.255,0,0,0-3.387-1.871Z"/>
      </g>
      <g id="Path_413" transform="translate(58.92 27)">
        <path id="Path_423" data-name="Path 423" d="M10.5,0c5.457-.559,9.981,5.622,9.981,10.592S16.3,18,10.5,18-.514,14.022-.514,9.051,5.043.559,10.5,0Z"/>
      </g>
      <g id="Path_415" transform="matrix(0.891, 0.454, -0.454, 0.891, 82.166, 28.482)">
        <path id="Path_424" data-name="Path 424" d="M10.5,0c5.457-.559,9.981,5.622,9.981,10.592S16.3,18,10.5,18-.514,14.022-.514,9.051,5.043.559,10.5,0Z"/>
      </g>
      <g id="Path_416" transform="translate(96.872 43.368) rotate(39)">
        <path id="Path_425" data-name="Path 425" d="M10.5,0c5.457-.559,9.981,5.622,9.981,10.592S16.3,18,10.5,18-.514,14.022-.514,9.051,5.043.559,10.5,0Z"/>
      </g>
      <path id="Path_426" data-name="Path 426" d="M40.392,93.08c1.154,1.538,7.021,4.04,9.1,5.656,9.866,7.674,19.452,1.569,21.149,1.229,8.145-1.629,8.694-6.112,9.468-6.885" fill="none" stroke="#000" stroke-linecap="round" stroke-linejoin="round" stroke-miterlimit="1.5" stroke-width="8" fill-rule="evenodd"/>
      <path id="Path_427" data-name="Path 427" d="M95.6,51.52c2.706,4.058,4.017,3.553,4.181,8.484.192,5.766,3.248,11.843,1.23,13.525a5.751,5.751,0,0,0-1.968,4.058c-.4.4-3.956.6-4.3.615" fill="none" stroke="#000" stroke-linecap="round" stroke-linejoin="round" stroke-miterlimit="1.5" stroke-width="4" fill-rule="evenodd"/>
      <path id="Path_428" data-name="Path 428" d="M67.689,98.244c3.428,3.918,3.873,4.053,5.161,5.41,7.4.822,12.112,3.559,13.283.984,1.531-3.369,4.244-6.326,6.025-9.591,1.5-2.749,1.106-2.91,1.106-15.739" fill="none" stroke="#000" stroke-linecap="round" stroke-linejoin="round" stroke-miterlimit="1.5" stroke-width="4" fill-rule="evenodd"/>
      <path id="Path_429" data-name="Path 429" d="M59.7,102.793c1.2,1.6,14.613,15.153,20.78,5.9A21.71,21.71,0,0,0,84.288,95.17a26.942,26.942,0,0,0,1.107-2.459" fill="none" stroke="#000" stroke-linecap="round" stroke-linejoin="round" stroke-miterlimit="1.5" stroke-width="4" fill-rule="evenodd"/>
      <path id="Path_430" data-name="Path 430" d="M100.15,71.931c4.674.467,4.291,1.6,8.238,2.582" fill="none" stroke="#000" stroke-linecap="round" stroke-linejoin="round" stroke-miterlimit="1.5" stroke-width="4" fill-rule="evenodd"/>
      <path id="Path_431" data-name="Path 431" d="M97.2,76.111a13.008,13.008,0,0,0,8.853-3.811c1.744-1.744,1.786-1.661,3.935-1.968" fill="none" stroke="#000" stroke-linecap="round" stroke-linejoin="round" stroke-miterlimit="1.5" stroke-width="4" fill-rule="evenodd"/>
      <path id="Path_432" data-name="Path 432" d="M101.256,66.521c.4.033,2.67-1.15,5.78,2.582.449.041.9-.041,1.352,0,.091.008.164.082.246.123" fill="none" stroke="#000" stroke-linecap="round" stroke-linejoin="round" stroke-miterlimit="1.5" stroke-width="2" fill-rule="evenodd"/>
      <path id="Path_433" data-name="Path 433" d="M100.027,74.882c10.145,0,10.476-.566,10.943.369.126.251,1.189,2.377,2.091,2.828" fill="none" stroke="#000" stroke-linecap="round" stroke-linejoin="round" stroke-miterlimit="1.5" stroke-width="2" fill-rule="evenodd"/>
      <path id="Path_434" data-name="Path 434" d="M108.634,70.209c.126,0,6.719.291,7.5-.491" fill="none" stroke="#000" stroke-linecap="round" stroke-linejoin="round" stroke-miterlimit="1.5" stroke-width="2" fill-rule="evenodd"/>
      <path id="Path_435" data-name="Path 435" d="M108.88,69.718a50.537,50.537,0,0,1,6.394-2.337" fill="none" stroke="#000" stroke-linecap="round" stroke-linejoin="round" stroke-miterlimit="1.5" stroke-width="2" fill-rule="evenodd"/>
      <path id="Path_436" data-name="Path 436" d="M94.248,91.112c1.643-1.232,2.883-3.945,10.082-6.516,3.287-1.174,2.885-3.263,2.706-12.419" fill="none" stroke="#000" stroke-linecap="round" stroke-linejoin="round" stroke-miterlimit="1.5" stroke-width="1" fill-rule="evenodd"/>
      <path id="Path_437" data-name="Path 437" d="M66.213,99.474c.044.029,12.28,16.8,15.862,14.755,7.236-4.135,3.968-11.05,5.164-17.829.211-1.2.779-4.413,6.394-13.772" fill="none" stroke="#000" stroke-linecap="round" stroke-linejoin="round" stroke-miterlimit="1.5" stroke-width="1" fill-rule="evenodd"/>
      <path id="Path_438" data-name="Path 438" d="M79.985,98c1.12.776,3.413,4.189,8.361.615,3.159-2.282,8.945-8.635,9.345-16.231.172-3.272,1.085-2.855,3.811-4.672" fill="none" stroke="#000" stroke-linecap="round" stroke-linejoin="round" stroke-miterlimit="1.5" stroke-width="1" fill-rule="evenodd"/>
      <path id="Path_439" data-name="Path 439" d="M115.52,68.365c2.57-2.57,2.84-2.162,4.057-2.336" fill="none" stroke="#000" stroke-linecap="round" stroke-linejoin="round" stroke-miterlimit="1.5" stroke-width="1" fill-rule="evenodd"/>
      <path id="Path_440" data-name="Path 440" d="M112.2,68.98c4.657.239,4.666-.072,7.5.738" fill="none" stroke="#000" stroke-linecap="round" stroke-linejoin="round" stroke-miterlimit="1.5" stroke-width="1" fill-rule="evenodd"/>
      <path id="Path_441" data-name="Path 441" d="M110.847,75.5c4.234,1.209,3.2,2.766,5.042,3.688" fill="none" stroke="#000" stroke-linecap="round" stroke-linejoin="round" stroke-miterlimit="1.5" stroke-width="1" fill-rule="evenodd"/>
      <path id="Path_442" data-name="Path 442" d="M103.224,62.463c1.953.326,1.712.728,3.074,2.09a43.537,43.537,0,0,0,4.649,2.2c1.163,2.035.736,3.526,2.851,2.469" fill="none" stroke="#000" stroke-linecap="round" stroke-linejoin="round" stroke-miterlimit="1.5" stroke-width="1" fill-rule="evenodd"/>
      <path id="Path_443" data-name="Path 443" d="M90.559,87.424c.172-.069.081-.091,2.09-.984,9.192-4.085,13.78-.093,14.264-5.9.765-9.186.915-11.649,3.442-15.862" fill="none" stroke="#000" stroke-linecap="round" stroke-linejoin="round" stroke-miterlimit="1.5" stroke-width="1" fill-rule="evenodd"/>
      <path id="Path_444" data-name="Path 444" d="M102.24,58.037c.3.1,5.365,3.912,7.132,4.8,1.731.866,1.256,3.838,2.705,5.287,4.849,4.849,5.52,3.56,5.779,3.689" fill="none" stroke="#000" stroke-linecap="round" stroke-linejoin="round" stroke-miterlimit="1.5" stroke-width="1" fill-rule="evenodd"/>
    </g>
    <g id="Ellipse_39" data-name="Ellipse 39" transform="translate(12 13)" fill="#fff" stroke="#000" stroke-width="3">
      <circle cx="6" cy="6" r="6" stroke="none"/>
      <circle cx="6" cy="6" r="7.5" fill="none"/>
    </g>
  </g>
</svg>
