<svg xmlns="http://www.w3.org/2000/svg" xmlns:xlink="http://www.w3.org/1999/xlink" width="668" height="161" viewBox="0 0 668 161">
  <defs>
    <clipPath id="clip-ship-5-enterprise-d">
      <rect width="668" height="161"/>
    </clipPath>
  </defs>
  <g id="ship-5-enterprise-d" clip-path="url(#clip-ship-5-enterprise-d)">
    <path id="Union_68" data-name="Union 68" d="M246.813,144.853l-73.024.723h0v0a9.129,9.129,0,0,0-.217-5.391c-.926-2.812-3.6-6.833-11.089-10.019-10-4.255-36.591-4.89-51.55-4.89-6.428,0-11.1.117-11.965.14h-.027V128H58.355v-2.585H43.89a18.691,18.691,0,0,1-3.347-2.848,11.114,11.114,0,0,1-3.288-7.427c.018-1.391.914-3.238,2.664-5.489a53.668,53.668,0,0,1,5.785-6.123c4.159-3.86,8.348-7,8.388-7.031L50.075,91.8H38.26l-3.011-4.157-20.67-.4v-.063A15.094,15.094,0,0,1,0,76.072H8.334V69.051H0A14.654,14.654,0,0,1,5.319,61.1a15.438,15.438,0,0,1,9.45-3.164,16.17,16.17,0,0,1,1.748.1l191.5,3.434v2.618h10.612V61.465h15.251l25.987-22.68.007,0c1.187-.364,29.519-9.02,68.558-18.109a33.761,33.761,0,0,0,6.8-2.156c2.692-1.161,5.235-2.26,23.1-5.1,23.361-3.712,53.085-4,61.639-4,1.318,0,2.16.006,2.313.008l2.862-4.352h2.444l1.833-3.258h4.469V0h4.054V1.816H442l2.175,3.258h14.158l3.237,4.352h24.121l3.043,4.386h.046c2.586.053,16.333.348,32.981,1.056,16.783.714,40.052,2.006,55.6,4.107,17.236,2.33,37.656,7.958,48.295,11.106,14.428,4.269,26.079,8.461,26.855,9.357.324.373.014,2.045,0,2.117H649v2.324h3.5v2.1L649,47.521l-64.181.853c-1.244.317-30.7,7.8-51.157,11.224-19.216,3.438-51.759,4.606-68.95,4.994l-2.825,4.233h-4.056V70.64H453.78V68.825h-4.469L446.9,64.548c-12.407-.448-30.619-1.565-41.88-2.295-19.519-1.264-38.109-2.649-41.078-3a11.586,11.586,0,0,0-1.341-.069,36.139,36.139,0,0,0-32.43,24.694c-3.773,11.354-9.229,23.4-13.9,30.687-4.859,7.584-9.4,10.592-9.444,10.621L298.7,137.255l-38.434,6.064-6.946,2.258Zm-123.4-49.309a30.022,30.022,0,0,0-7.85,10.426l1.92-.421,1.6-.352.944-.208.619-.136c8.591-1.886,24.581-5.4,30.277-6.628,7.358-1.592,43.5-7.818,47.594-8.524l.076-.013H136.219C136.142,89.707,128.477,91.549,123.409,95.544Z" transform="translate(6.377 7.487)"/>
    <g id="Rectangle_85" data-name="Rectangle 85" transform="translate(315 89)" fill="#fff" stroke="#000" stroke-width="3">
      <rect width="14" height="14" stroke="none"/>
      <rect x="-1.5" y="-1.5" width="17" height="17" fill="none"/>
    </g>
    <g id="Ellipse_193" data-name="Ellipse 193" transform="translate(250 133)" fill="#fff" stroke="#000" stroke-width="3">
      <ellipse cx="8.5" cy="9" rx="8.5" ry="9" stroke="none"/>
      <ellipse cx="8.5" cy="9" rx="10" ry="10.5" fill="none"/>
    </g>
    <g id="Ellipse_198" data-name="Ellipse 198" transform="translate(353 22)" fill="#fff" stroke="#000" stroke-width="3">
      <ellipse cx="8.5" cy="9" rx="8.5" ry="9" stroke="none"/>
      <ellipse cx="8.5" cy="9" rx="10" ry="10.5" fill="none"/>
    </g>
    <g id="Ellipse_199" data-name="Ellipse 199" transform="translate(76 119)" fill="#fff" stroke="#000" stroke-width="3">
      <ellipse cx="8.5" cy="9" rx="8.5" ry="9" stroke="none"/>
      <ellipse cx="8.5" cy="9" rx="10" ry="10.5" fill="none"/>
    </g>
  </g>
</svg>
