<svg xmlns="http://www.w3.org/2000/svg" xmlns:xlink="http://www.w3.org/1999/xlink" width="422" height="112" viewBox="0 0 422 112">
  <defs>
    <clipPath id="clip-ship-2-gallimaufry">
      <rect width="422" height="112"/>
    </clipPath>
  </defs>
  <g id="ship-2-gallimaufry" clip-path="url(#clip-ship-2-gallimaufry)">
    <path id="Subtraction_4" data-name="Subtraction 4" d="M35.522,99.106h0l-4.495-4.494L59.947,61.2h3.978l5.414-3.707,1.189,1.32,6.364-3.978-4.216-5.052-10.73,9.991L56.011,55.7h-5.5l-6.48-5.921,3.979-4.773-6.851-7.594h-5.64V32.833L0,29.89V11.87L59.947,9.483V4.71h9.205V.882H90.326V4.71H128.26V1.764h26.116L156.564,0h12.453l1.763,1.764h9.18L182.149,0H194.6l1.763,1.764h9.181L207.733,0h12.451l1.763,1.764h8.3L232.434,0h12.451l1.763,1.764h22.764V4.71h76.7V2.959H349.7L352.2.081h4.983V4.71h5.693V2.959h3.588l2.5-2.878h4.983V4.71h6.067l-8.473,32.015H364.1v5.139h7.439l3.072,17.695h7.847V61.7H395.31v2.53h-9.783v3.016h23.9V69.67H376.363l.462,2.664h-2.885V77.5h-4.983l-2.5-2.878h-3.588V72.334h-5.693V77.5H352.2l-2.5-2.878H346.11V72.334h-5.693V77.5h-4.983l-2.5-2.878h-3.588V72.334H145.034l-8.712-17.5h-23.31a18.772,18.772,0,0,0,2.014-8.515A18.967,18.967,0,1,0,81.31,58.242L76.892,61.2l3.461,4.256L35.523,99.105ZM250.663,44.834H265v2.873l2.554,2.048V62.466h3.3V49.755l2.75-2.048V44.834h80.14l3.931-3.6V37.467l-3.931-3.6H342.412v-6.59l-2.75-2.048V12.517h-3.3V25.228l-2.554,2.048v6.59H319.474V30.63l-2.75-2.048V15.872h-3.3V28.582l-2.554,2.048v3.235H296.538V30.63l-2.75-2.048V15.872h-3.3V28.582l-2.554,2.048v3.235H273.6V30.63l-2.75-2.048V15.872h-3.3V28.582L265,30.63v3.235H250.663V30.63l-2.75-2.048V15.872h-3.3V28.582l-2.554,2.048v3.235H227.726V30.63l-2.75-2.048V15.872h-3.3V28.582l-2.554,2.048v3.235h-15.22V30.63l-2.75-2.048V15.872h-3.3V28.582l-2.554,2.048v3.235H161.2l-2.659,3.6H147.714v3.766h10.828l2.659,3.6h11.17v2.873l2.554,2.048V62.466h3.295V49.755l2.75-2.048V44.834h14.338v2.873l2.554,2.048V62.466h3.3V49.755l2.75-2.048V44.834h15.22v2.873l2.554,2.048V62.466h3.3V49.755l2.75-2.048V44.834h14.338v2.873l2.554,2.048V62.466h3.3V49.755l2.75-2.048V44.835Zm-154.6,17.8a16.32,16.32,0,1,1,11.54-4.78A16.214,16.214,0,0,1,96.06,62.636Z" transform="translate(4.614 4)"/>
    <ellipse id="Ellipse_21" data-name="Ellipse 21" cx="5.5" cy="5" rx="5.5" ry="5" transform="translate(154 13)" fill="#fff"/>
    <ellipse id="Ellipse_26" data-name="Ellipse 26" cx="5.5" cy="5" rx="5.5" ry="5" transform="translate(138 13)" fill="#fff"/>
    <ellipse id="Ellipse_24" data-name="Ellipse 24" cx="5.5" cy="5" rx="5.5" ry="5" transform="translate(170 13)" fill="#fff"/>
    <circle id="Ellipse_25" data-name="Ellipse 25" cx="5" cy="5" r="5" transform="translate(186 13)" fill="#fff"/>
    <path id="Union_22" data-name="Union 22" d="M19.054,36.383V32.8H14l-1.484-.947V27.117H6.109V25.538L3.473,24.386v-6L0,16.493V15.34H6.109V5.759L8,3.343l6-1.765V0H27.579V1.578h3.362l.631,3.473H54.62V22.882H52.438a5.68,5.68,0,0,1-2.228,2.95v3.948H48.445V26.622a5.71,5.71,0,0,1-2.647.034v3.125H44.034V25.925a5.677,5.677,0,0,1-2.37-3.042H39.088L37.27,25.538h3.664v6.315l-9.992,4.53Z" transform="translate(120.598 55.382)"/>
    <rect id="Rectangle_30" data-name="Rectangle 30" width="11" height="11" transform="translate(139 72)" fill="#fff"/>
  </g>
</svg>
