<svg xmlns="http://www.w3.org/2000/svg" xmlns:xlink="http://www.w3.org/1999/xlink" width="384" height="134" viewBox="0 0 384 134">
  <defs>
    <clipPath id="clip-ship-1-rocinante">
      <rect width="384" height="134"/>
    </clipPath>
  </defs>
  <g id="ship-1-rocinante" clip-path="url(#clip-ship-1-rocinante)">
    <path id="Union_38" data-name="Union 38" d="M185.29,111.671H182.3l-1.745-3.4-2.412-.881v-2.009l-8.3-5.93h-9.531L155.9,95.285h-3.164l-3.576-5.614-5.3-2.023h-.2v4.284H123.841V87.667l-12.686.011v2.663H98.469V87.689l-7.437.007v2.2l-6.359,1.628L83.167,93.8h-8.33L51.263,90.136l-1.745-2.488L32.641,80.061l-19.15,5.49-6.349.079.429-.914H4.2V81.528H7.571V79.093L2.529,75.6,0,75.111V61.791l2.529-.43v-5.6H2.85V50.309l-2.529-.43V36.559L2.85,36.07l5.042-3.493V30.142H4.521V26.954H7.892l-.429-.914,6.349.079,19.149,5.49,16.877-7.587,1.745-2.488,23.574-3.66h8.33l1.507,2.271,6.359,1.628v2.2l7.437.007V21.329h12.686v2.663L124.162,24V19.738h19.822v4.285h.2l5.3-2.023,3.576-5.614h3.164l4.408-4.164h9.531l8.3-5.93V4.282l2.412-.88L182.623,0h2.989V4.4a92.661,92.661,0,0,1,10.775-.626c.285,0,.59,0,.908,0,3.5.035,7.033.219,10.508.547V0h2.989l1.744,3.4,2.413.88V5.318l1.554,2.73,4.688.563,3.778,11.33,37.347.1,6.442,2.121.63-1.945,2.566-.09,2.707-2.695,2.843.926L275.549,24.4,295.617,31l1.951-6.023,2.843.926.612,3.776,2.022,1.585-.638,1.97,1.889.622,3.649-.1,6.555,3.052h11.395l1.968,2.811h29.089V42.8H330.089l1.114,1.59h35.263v3.181H333.43l.968,1.383h-6.592V56h-.321v6.714H345.97l-2.411,3.149h27.663v3.181h-30.1l-1.217,1.591h10.7v3.181H337.473l-.8,1.044h-22.5l-6.555,3.052-3.649-.1-1.889.621.639,1.971L300.7,81.989l-.61,3.776-2.843.927L295.3,80.669l-20.067,6.6,1.955,6.037-2.843.927-2.707-2.694-2.565-.091-.63-1.945L262,91.628l-37.347.1-3.779,11.33-4.688.563-1.555,2.732v1.034l-2.412.881-1.744,3.4h-2.989v-4.324c-3.5.328-7.031.512-10.508.547-.3,0-.611,0-.909,0a92.836,92.836,0,0,1-10.775-.626v4.4h0ZM34.526,77.842l10.339,4.032-2.01-6.5ZM127.013,80.8h14.272V76.821H127.013Zm-95.982-9.81,11.995-1.581-.618-3.348-9.459-5.705Zm95.982-1.325h14.272V65.688H127.013ZM33.27,51.315l9.46-5.705.617-3.348L31.352,40.681Zm94.065-5.333h14.272V42.006H127.334ZM34.847,33.828l8.329,2.464,2.01-6.5Zm92.488,1.02h14.272V30.872H127.334Z" transform="translate(2.405 6.884)"/>
    <g id="Ellipse_26" data-name="Ellipse 26" transform="translate(192 2)" fill="#fff" stroke="#000" stroke-width="2">
      <circle cx="6.5" cy="6.5" r="6.5" stroke="none"/>
      <circle cx="6.5" cy="6.5" r="7.5" fill="none"/>
    </g>
    <g id="Ellipse_32" data-name="Ellipse 32" transform="translate(192 110)" fill="#fff" stroke="#000" stroke-width="2">
      <circle cx="6.5" cy="6.5" r="6.5" stroke="none"/>
      <circle cx="6.5" cy="6.5" r="7.5" fill="none"/>
    </g>
    <g id="Ellipse_33" data-name="Ellipse 33" transform="translate(282 88)" fill="#fff" stroke="#000" stroke-width="2">
      <circle cx="7" cy="7" r="7" stroke="none"/>
      <circle cx="7" cy="7" r="8" fill="none"/>
    </g>
    <g id="Ellipse_34" data-name="Ellipse 34" transform="translate(282 25)" fill="#fff" stroke="#000" stroke-width="2">
      <ellipse cx="7" cy="6.5" rx="7" ry="6.5" stroke="none"/>
      <ellipse cx="7" cy="6.5" rx="8" ry="7.5" fill="none"/>
    </g>
    <rect id="Rectangle_30" data-name="Rectangle 30" width="10" height="10" transform="translate(315 66)" fill="#fff"/>
  </g>
</svg>
