<svg xmlns="http://www.w3.org/2000/svg" xmlns:xlink="http://www.w3.org/1999/xlink" width="625" height="204" viewBox="0 0 625 204">
  <defs>
    <clipPath id="clip-ship-3-Yamato">
      <rect width="625" height="204"/>
    </clipPath>
  </defs>
  <g id="ship-3-Yamato" clip-path="url(#clip-ship-3-Yamato)">
    <path id="Union_28" data-name="Union 28" d="M-1636.866,2483.98l-1.765-6.539,10.913-2.089s2.091-6.047,1.961-9.608-2.48-4.638-2.48-4.638l-7.778-1.383-6.606,1.9-8.755,17.06,5.814,2.716-11.039.421,9.735-21.119-3.6-2.216-55.454-.9-3.575,3.549s-15.828-.843-25.74-2.129-13.908-3.02-13.908-3.02l-61.739-4.109-4.616-16.115-17.315-3-17.247,20.027,10.585,2.73h-22.276l4.742-4.168,11.628-20.82-18.62-3.9.437-22.25,15.448-2.917,5.273-4.2-7.909-32.006-5.047-3.911,22.255.2-9.754,2.411,15.528,32.252,6.7,2.529h11.875l1.22-1.731,22.606-.194v-3.248h-5.226v1.5h-3.461v-1.5h-22.423l-1.442,1.5-1.96-3.137,1.96-2.088h44.317v-1.011l7.647,1.668v2.608l-4.245,1.96h-5.619v-1.5h-4.186v3.2l42.738-.366v-3.122h-5.738l-.895-1.994,3.6-6.77,11.472.154,11.42-3.322h4.374l7.078,3.749,1.815,4.989-2.662,3.2-5.337.453v2.453l9.492-.082v-8.067l3.55-4.792h3.822v-4h-4.914v-1.444l21.806-6.423v7.867h-2.684v4h5.236v-2.944s-1.005-3.929,5.676-4.792c1.009-.13-23.973-21.083-23.973-21.083l14.56.519-7.667,1.581,17.4,11.536-18.8-48.865-19.8-4.717,19.261,2.089a54.751,54.751,0,0,1,5.569-.62c1.805-.02,5.647.521,5.726,1.781s-7,2.2-7,2.2l25.451,47.8-1.01-5.453-3.4-5.03,2.048-2.088-2.593-9.474.812-2.668,16.749-9.4,16.783,31.751,2.309-17.923-2.309-3.391,1.3-2.245-3.617-4.925,1.252-1.109,3.388,4.269.433-.748h1.544l-2.9-12.271-23.233-2.4-1.7-1h2.048l23.277.958,1.642-4.233.4-5.218-5.247-8.1,4.608-2.139-3.5-5.49,1.468-.7,3.713,5.52c.442-.135,1.029-.3,1.7-.437l-3.885-6.1,1.468-.7,4.378,6.507a8.662,8.662,0,0,1,5.453,1.03c1.263.82,3.136,3.929,3.136,3.929l-.666.677v5.212h2.854l.656,1.1h2.263l3.45,4.61h-1.576l-2.115,3.244h-.982v1.7l3.677,9.711,3.686.923,4.614,6.694-3.155,3.6.9,1.919,3.892-2.856.5,1-3.665,3.073,1.4,1.053v3.09l-1.994,2.1,3.54,10.582-3.54,4.341-1.781,8.078,6.371,2.585V2378h-2.609v-8.572l16.855,2.839,6.34,3.11V2378h-5.86v2.9h2.726l7.631,12.245h7.253v-3.409l-9.406-2.176v-4.3l9.248-5.262h4.233l24.854,3.262,3.02,5.9-1.671,2.575h-4.208v4.38h5.1l15.31,6.008v-1.991l-10-3.159,1.579-5.993,7.3-3.433h4.507l23.034,2.986,3.615,8.534h-4.233v3.595s40.95.762,62.117-1.3,22.55-6.96,22.55-6.96l11.007.107s9.551-4.135,18.177-4.052a38.627,38.627,0,0,1,16.328,4.387s30.894-1.255,53.846-3.6a345.715,345.715,0,0,0,37.96-5.774s-2.905,7.854,4.057,5.774c4.788-1.49,0-6.636,0-6.636l16.158-5.739-6.511,18.889a16.293,16.293,0,0,0-8.617,4.756c-3.425,3.893-5.087,10.82-5.087,10.82s-17.68,7.854-21.325,14.813,7.522,9.163,7.522,9.163,6.181,2.983,4.308,11.152-29.063,11.267-29.063,11.267-86.1-2.118-127.152-2.334c-21.641-.405-51.119,1.222-51.119,1.222s-8.506,5.075-17.913,5.337a37.163,37.163,0,0,1-7.608-.658l-8.342,9.215,7.187,2.066h-11.11l1.66-1.409,5.083-11.186a57.873,57.873,0,0,1-6.583-2.316l-46.042,2.354s-7.09,2.247-11.6,2.247-6.439-2.247-6.439-2.247-12.54,3.577-17.3,7.088-1.725,6.962-1.725,6.962,8.051,1.533,12.315,3.363,4.735,3.961,4.735,3.961l-12.668,3.323-6.48,4.451Z" transform="translate(1866.875 -2291.588)"/>
    <g id="Ellipse_25" data-name="Ellipse 25" transform="translate(136 90)" fill="#fff" stroke="#000" stroke-width="3">
      <circle cx="6" cy="6" r="6" stroke="none"/>
      <circle cx="6" cy="6" r="7.5" fill="none"/>
    </g>
    <g id="Ellipse_28" data-name="Ellipse 28" transform="translate(173 78)" fill="#fff" stroke="#000" stroke-width="3">
      <circle cx="6" cy="6" r="6" stroke="none"/>
      <circle cx="6" cy="6" r="7.5" fill="none"/>
    </g>
    <g id="Ellipse_29" data-name="Ellipse 29" transform="translate(274 76)" fill="#fff" stroke="#000" stroke-width="3">
      <circle cx="6" cy="6" r="6" stroke="none"/>
      <circle cx="6" cy="6" r="7.5" fill="none"/>
    </g>
    <g id="Ellipse_30" data-name="Ellipse 30" transform="translate(311 88)" fill="#fff" stroke="#000" stroke-width="3">
      <circle cx="6" cy="6" r="6" stroke="none"/>
      <circle cx="6" cy="6" r="7.5" fill="none"/>
    </g>
    <g id="Ellipse_31" data-name="Ellipse 31" transform="translate(358 94)" fill="#fff" stroke="#000" stroke-width="3">
      <circle cx="6" cy="6" r="6" stroke="none"/>
      <circle cx="6" cy="6" r="7.5" fill="none"/>
    </g>
    <rect id="Rectangle_30" data-name="Rectangle 30" width="12" height="12" transform="translate(568 110)" fill="#fff"/>
  </g>
</svg>
