<svg xmlns="http://www.w3.org/2000/svg" xmlns:xlink="http://www.w3.org/1999/xlink" width="836" height="306" viewBox="0 0 836 306">
  <defs>
    <clipPath id="clip-ship-7-StarDestroyer">
      <rect width="836" height="306"/>
    </clipPath>
  </defs>
  <g id="ship-7-StarDestroyer" clip-path="url(#clip-ship-7-StarDestroyer)">
    <path id="Union_46" data-name="Union 46" d="M-1557.752,2976.064v-3.289l-44.816,2.945v-2.184H-1607l36.864-27.144,0-2.032,5.426-1.864.022-8.323a38.6,38.6,0,0,1-7.979.827,38.691,38.691,0,0,1-8-.832v-56.336a38.621,38.621,0,0,1,8-.833,38.631,38.631,0,0,1,8.152.865l.009-1.94-2.423-.756v-6.692l9.181,2.225v-2.225l-11.639-3.986-27.1-25.024h-2.622v-21.154l8.8-14.21,3.721-1.154,44.924-61.3,13.995,2.329.138,4.508h3.662l.915-3.8,12.524-.2,9.585-9.2,18.989,1.158v-3.056h7.684V2730a4.447,4.447,0,0,1,1-2.747V2723h3v2.014a12.332,12.332,0,0,1,5-1.014,13.072,13.072,0,0,1,3,.345V2722h7v6h7v6h-3.679v4.281l3.86.235-.347,9.6h1.365v4.021h2.47v2.606h-4.073l-.045,1.2-1.193,8.744h1.826v3.4h-2.291l-1.323,9.67-20.491-2.84V2788.5l119.257,8.85,6.627,6.909,45.1,3.5v4.4l11.972,11.028v9.464l8.851,4.117,53.148,8.045v12.3h34.259l10.415,8.519,66.539,3.17v-3.17l165.353,16.09,6.909-2.839,19.5,1.177V2878h3v2.246l10,.6V2879h6v2.211l8.545.516,8.519,4.117,98.766,6.295v5.294h-7.9V2900h5.074v3h-5.074v2h2.074v3h-2.074v1.508h7.9v4.069l-263.791,21.154v-2.84H-1074.9v2.84l-51.11,3.455-1.893-6.295-3.807.279.137,1.963-1.552,6.518-1.634.114-2.573-6.23-.136-1.944-5.212.382.135,1.927-1.553,6.518-1.634.114-2.573-6.229-.133-1.909-4.215.309.133,1.894-1.552,6.518-1.634.114-2.573-6.229-.131-1.876-5.213.382.13,1.859-1.553,6.518-1.633.115-2.573-6.23-.129-1.84-4.215.309.128,1.826-1.553,6.518-1.633.115-2.573-6.23-.126-1.807-4.215.309.125,1.794-1.553,6.518-1.634.114-2.573-6.23-.124-1.774-5.213.382.123,1.757-1.552,6.519-1.634.113-2.573-6.229-.121-1.739-4.216.309.121,1.726-1.552,6.518-1.634.113-2.573-6.229-.119-1.707-3.618.265v7.9h-13.249l-3.453,5.065-125.78,9.578c-1.456,4.62-14.964,9.08-31.668,10.247-16.209,1.133-29.87-1.22-32.571-5.356l-137.14,10.443Z" transform="translate(1621.169 -2711)"/>
    <g id="Ellipse_38" data-name="Ellipse 38" transform="translate(157 176)" fill="#fff" stroke="#000" stroke-width="3">
      <circle cx="6" cy="6" r="6" stroke="none"/>
      <circle cx="6" cy="6" r="7.5" fill="none"/>
    </g>
    <g id="Ellipse_44" data-name="Ellipse 44" transform="translate(179 176)" fill="#fff" stroke="#000" stroke-width="3">
      <circle cx="6" cy="6" r="6" stroke="none"/>
      <circle cx="6" cy="6" r="7.5" fill="none"/>
    </g>
    <g id="Ellipse_53" data-name="Ellipse 53" transform="translate(202 176)" fill="#fff" stroke="#000" stroke-width="3">
      <circle cx="6" cy="6" r="6" stroke="none"/>
      <circle cx="6" cy="6" r="7.5" fill="none"/>
    </g>
    <g id="Ellipse_42" data-name="Ellipse 42" transform="translate(684 172)" fill="#fff" stroke="#000" stroke-width="3">
      <circle cx="6" cy="6" r="6" stroke="none"/>
      <circle cx="6" cy="6" r="7.5" fill="none"/>
    </g>
    <g id="Ellipse_43" data-name="Ellipse 43" transform="translate(706 174)" fill="#fff" stroke="#000" stroke-width="3">
      <circle cx="6" cy="6" r="6" stroke="none"/>
      <circle cx="6" cy="6" r="7.5" fill="none"/>
    </g>
    <g id="Ellipse_39" data-name="Ellipse 39" transform="translate(89 176)" fill="#fff" stroke="#000" stroke-width="3">
      <circle cx="6" cy="6" r="6" stroke="none"/>
      <circle cx="6" cy="6" r="7.5" fill="none"/>
    </g>
    <g id="Ellipse_40" data-name="Ellipse 40" transform="translate(112 176)" fill="#fff" stroke="#000" stroke-width="3">
      <circle cx="6" cy="6" r="6" stroke="none"/>
      <circle cx="6" cy="6" r="7.5" fill="none"/>
    </g>
    <g id="Ellipse_41" data-name="Ellipse 41" transform="translate(134 176)" fill="#fff" stroke="#000" stroke-width="3">
      <circle cx="6" cy="6" r="6" stroke="none"/>
      <circle cx="6" cy="6" r="7.5" fill="none"/>
    </g>
    <g id="Rectangle_52" data-name="Rectangle 52" transform="translate(514 215)" fill="#fff" stroke="#000" stroke-width="3">
      <rect width="12" height="12" stroke="none"/>
      <rect x="-1.5" y="-1.5" width="15" height="15" fill="none"/>
    </g>
    <g id="Rectangle_53" data-name="Rectangle 53" transform="translate(355 127)" fill="#fff" stroke="#000" stroke-width="3">
      <rect width="12" height="12" stroke="none"/>
      <rect x="-1.5" y="-1.5" width="15" height="15" fill="none"/>
    </g>
  </g>
</svg>
