<svg xmlns="http://www.w3.org/2000/svg" xmlns:xlink="http://www.w3.org/1999/xlink" width="749" height="106" viewBox="0 0 749 106">
  <defs>
    <clipPath id="clip-ship-6-galactica">
      <rect width="749" height="106"/>
    </clipPath>
  </defs>
  <g id="ship-6-galactica" clip-path="url(#clip-ship-6-galactica)">
    <path id="Subtraction_16" data-name="Subtraction 16" d="M533.17,92.848c-30.753,0-85.577-2.39-86.088-2.414V88.363l-22.522-.925-3.593-.965-185.85-.422h-.007c-1.077-.206-26.621-5.072-47.843-6.142-3.264-.162-6.582-.245-9.863-.245a189.912,189.912,0,0,0-28.548,2.04H92.266c-.2,0-20.388-.5-36.076-1.8-15.634-1.293-27.982-3.5-28.1-3.519V62.381l31.055-5.762-7.591-3.692V33.845l-.052,0c-1.67-.176-16.663-1.784-28.672-3.873C10.337,27.793.091,24.9,0,24.874V6.931l.011,0C1.2,6.77,29.546,3.055,74.3,1.241,95.794.371,110.044,0,121.95,0c18.852,0,32.677.969,46.228,3.239,21.529,3.609,53.571,9.25,57.154,9.881l.107.019.017,0,9.661-9.9h9.558V5.793h8.281L261,1.307h9.868V3.239h24.844l1.38,2.554H363.8V1.6h17.25V5.793h6.161V1.6h17.25V5.793H427.31l39.337-2.554L506.19,1.307A244.527,244.527,0,0,1,532.111.172c9.529,0,19.5.382,29.631,1.136,32.365,2.413,60.187,8.236,84.734,13.373l.021,0,.015,0,4.336.907c13.434,2.8,30.021,7.964,41.57,11.8,7.456,2.475,13.914,4.761,18.019,6.244h5.777v4.344l3.113,5.18v8.96h12.905v2.464H711.594l-1.71.07-4.6,2.654H686.641v2.206H669.39V57.309h-3.1V55h-2.966L653.113,73.108H662v-.04h20.947v2.464H670.638a36.316,36.316,0,0,1-4.175,3.711,42.166,42.166,0,0,1-8.188,4.872A47.963,47.963,0,0,1,646.362,87.7c-18.054,3.023-71.981,4.3-100.953,4.99h-.05l-2.112.05C540.427,92.813,537.036,92.848,533.17,92.848Zm19.161-11.154v4.928h25.876V81.694Zm-294.5-9.858v7.393h57.913V71.836Zm384.31-16.019,2.122,15.558,7.963-15.558H642.145ZM396.736,21.188h0V33.561h12.659L396.736,21.188Zm-24.414,0h0L359.664,33.561h12.658V21.188Zm-56.573,0V33.561h12.659L315.748,21.188Zm-24.414,0L278.676,33.561h12.658ZM56.986,11.458v4.929h4.93V11.458Zm-9.858,0v4.929h4.929V11.458Zm-9.858,0v4.929H42.2V11.458Zm-9.857,0v4.929h4.928V11.458Z" transform="translate(5.752 5.701)"/>
    <g id="Ellipse_45" data-name="Ellipse 45" transform="translate(629 72)" fill="#fff" stroke="#000" stroke-width="3">
      <ellipse cx="7.5" cy="8" rx="7.5" ry="8" stroke="none"/>
      <ellipse cx="7.5" cy="8" rx="9" ry="9.5" fill="none"/>
    </g>
    <g id="Ellipse_46" data-name="Ellipse 46" transform="translate(521 78)" fill="#fff" stroke="#000" stroke-width="3">
      <ellipse cx="7.5" cy="8" rx="7.5" ry="8" stroke="none"/>
      <ellipse cx="7.5" cy="8" rx="9" ry="9.5" fill="none"/>
    </g>
    <g id="Ellipse_48" data-name="Ellipse 48" transform="translate(365 78)" fill="#fff" stroke="#000" stroke-width="3">
      <ellipse cx="7" cy="8" rx="7" ry="8" stroke="none"/>
      <ellipse cx="7" cy="8" rx="8.5" ry="9.5" fill="none"/>
    </g>
    <g id="Ellipse_51" data-name="Ellipse 51" transform="translate(335 7)" fill="#fff" stroke="#000" stroke-width="3">
      <ellipse cx="7.5" cy="8" rx="7.5" ry="8" stroke="none"/>
      <ellipse cx="7.5" cy="8" rx="9" ry="9.5" fill="none"/>
    </g>
    <g id="Ellipse_47" data-name="Ellipse 47" transform="translate(501 78)" fill="#fff" stroke="#000" stroke-width="3">
      <ellipse cx="7.5" cy="8" rx="7.5" ry="8" stroke="none"/>
      <ellipse cx="7.5" cy="8" rx="9" ry="9.5" fill="none"/>
    </g>
    <g id="Ellipse_49" data-name="Ellipse 49" transform="translate(345 78)" fill="#fff" stroke="#000" stroke-width="3">
      <ellipse cx="7.5" cy="8" rx="7.5" ry="8" stroke="none"/>
      <ellipse cx="7.5" cy="8" rx="9" ry="9.5" fill="none"/>
    </g>
    <g id="Ellipse_52" data-name="Ellipse 52" transform="translate(315 7)" fill="#fff" stroke="#000" stroke-width="3">
      <ellipse cx="7.5" cy="8" rx="7.5" ry="8" stroke="none"/>
      <ellipse cx="7.5" cy="8" rx="9" ry="9.5" fill="none"/>
    </g>
    <g id="Ellipse_50" data-name="Ellipse 50" transform="translate(206 71)" fill="#fff" stroke="#000" stroke-width="3">
      <ellipse cx="7" cy="8" rx="7" ry="8" stroke="none"/>
      <ellipse cx="7" cy="8" rx="8.5" ry="9.5" fill="none"/>
    </g>
    <g id="Rectangle_52" data-name="Rectangle 52" transform="translate(684 50)" fill="#fff" stroke="#000" stroke-width="3">
      <rect width="15" height="15" stroke="none"/>
      <rect x="-1.5" y="-1.5" width="18" height="18" fill="none"/>
    </g>
  </g>
</svg>
