<svg xmlns="http://www.w3.org/2000/svg" xmlns:xlink="http://www.w3.org/1999/xlink" width="241" height="65" viewBox="0 0 241 65">
  <defs>
    <clipPath id="clip-ship-0-Millennium-Falcon">
      <rect width="241" height="65"/>
    </clipPath>
  </defs>
  <g id="ship-0-Millennium-Falcon" clip-path="url(#clip-ship-0-Millennium-Falcon)">
    <path id="Subtraction_32" data-name="Subtraction 32" d="M-1766.282,2732.923h-6.542l-5.061-2.985h-8.83l-4.688-2.076h-3.022v1.082h-9.452V2727.2h-31.177l-1.654-1.9h-8.668l-4.228-6.467-10.4-3.482h9.613v-8.581H-1860l10.4-4.153,2.823-3.4,1.4,3.4,18.082-3.4v-2.151l18.07-2.91,17.821-2.313v.821l13.518-.821,1.33-2.238h10.273v2.238h18.542V2693h20.805l1.567-3.98h2.238l7.636-5.135,1.567-4.887,1.2,9.544,1.838.91-1.544,1.441.338,2.693h11.28l15.421,5.72v1.069l20.967,2.251,2.487,3.146h27.359l.833-1.244h3.234l1.492,1.244h2.326l1.741,1.99v1.4l1.567.66v1.244l-2.4.92v2.4l-1.653.908h-2.575v1.492l-31.923-.66-3.395,4.638-21.228,1.915-5.97,4.228h-37.183l-5.97,2.19v-2.19l-7.287,2.19v-2.19l-4.763,2.19v1.33h-18.542v2.487Zm-1.1-33.733a11.513,11.513,0,0,0-11.5,11.5,11.513,11.513,0,0,0,11.5,11.5,11.513,11.513,0,0,0,11.5-11.5A11.513,11.513,0,0,0-1767.387,2699.19Zm72.5,1.148v2.445l8.721,1.025,0-1.141-8.723-2.329Zm-4.943-1.319v3.183l3.941.463,0-2.594-3.943-1.053Zm4.943-2.028h0v2l8.722,2.391v-1.373Zm-3.291-1.11h0l-1.652,1.675v.081l3.942,1.081v-2.074l-.392-.136-1.9-.627Zm-19.436-8.166h0l-2.638,1.851.752,3.848h3.018l-1.132-5.7Zm-49.775,32.474a9.511,9.511,0,0,1-9.5-9.5,9.51,9.51,0,0,1,9.5-9.5,9.511,9.511,0,0,1,9.5,9.5A9.511,9.511,0,0,1-1767.387,2720.19Z" transform="translate(1861.885 -2678.189)"/>
    <g id="Ellipse_26" data-name="Ellipse 26" transform="translate(94 4)" fill="#fff" stroke="#000" stroke-width="2">
      <circle cx="6.5" cy="6.5" r="6.5" stroke="none"/>
      <circle cx="6.5" cy="6.5" r="7.5" fill="none"/>
    </g>
    <g id="Ellipse_139" data-name="Ellipse 139" transform="translate(94 48)" fill="#fff" stroke="#000" stroke-width="2">
      <circle cx="6.5" cy="6.5" r="6.5" stroke="none"/>
      <circle cx="6.5" cy="6.5" r="7.5" fill="none"/>
    </g>
  </g>
</svg>
