<svg xmlns="http://www.w3.org/2000/svg" xmlns:xlink="http://www.w3.org/1999/xlink" width="56" height="56" viewBox="0 0 56 56">
  <defs>
    <clipPath id="clip-weapon-small-phaser">
      <rect width="56" height="56"/>
    </clipPath>
  </defs>
  <g id="weapon-small-phaser" clip-path="url(#clip-weapon-small-phaser)">
    <path id="Union_73" data-name="Union 73" d="M-487.037,659.075a24.424,24.424,0,0,1-7.788-5.251,24.411,24.411,0,0,1-5.25-7.788A24.339,24.339,0,0,1-502,636.5a24.339,24.339,0,0,1,1.926-9.536,24.411,24.411,0,0,1,5.25-7.788,24.424,24.424,0,0,1,7.788-5.251A24.354,24.354,0,0,1-477.5,612a24.354,24.354,0,0,1,9.536,1.925,24.414,24.414,0,0,1,7.788,5.251,24.413,24.413,0,0,1,5.251,7.788A24.337,24.337,0,0,1-453,636.5a24.337,24.337,0,0,1-1.925,9.536,24.413,24.413,0,0,1-5.251,7.788,24.414,24.414,0,0,1-7.788,5.251A24.354,24.354,0,0,1-477.5,661,24.354,24.354,0,0,1-487.037,659.075ZM-497.8,636.5a20.326,20.326,0,0,0,20.3,20.3A20.34,20.34,0,0,0-457.7,641h-8.132a12.455,12.455,0,0,1-2.83,4.339A12.419,12.419,0,0,1-477.5,649a12.42,12.42,0,0,1-8.839-3.661A12.419,12.419,0,0,1-490,636.5a12.419,12.419,0,0,1,3.661-8.839A12.42,12.42,0,0,1-477.5,624a12.419,12.419,0,0,1,8.839,3.661A12.431,12.431,0,0,1-465.494,633h8a20.336,20.336,0,0,0-20-16.8A20.325,20.325,0,0,0-497.8,636.5Z" transform="translate(506 -608)" stroke="#fff" stroke-width="2"/>
  </g>
</svg>
