<svg xmlns="http://www.w3.org/2000/svg" xmlns:xlink="http://www.w3.org/1999/xlink" width="72" height="72" viewBox="0 0 72 72">
  <defs>
    <clipPath id="clip-weapon-large-cannon">
      <rect width="72" height="72"/>
    </clipPath>
  </defs>
  <g id="weapon-large-cannon" clip-path="url(#clip-weapon-large-cannon)">
    <g id="Union_6" data-name="Union 6" transform="translate(277 -484)">
      <path d="M -241.0001983642578 541 C -244.7522583007812 541 -248.4347229003906 539.9984130859375 -251.6495208740234 538.1033935546875 C -254.6022338867188 536.3629150390625 -257.0960693359375 533.9147338867188 -258.8918151855469 531.0001220703125 L -267.0003051757812 531.0001220703125 L -268.0003051757812 531.0001220703125 L -268.0003051757812 530.0001220703125 L -268.0003051757812 525.9996948242188 L -275.0003967285156 525.9996948242188 L -276.0003967285156 525.9996948242188 L -276.0003967285156 524.9996948242188 L -276.0003967285156 516.9996337890625 L -276.0003967285156 515.9996337890625 L -275.0003967285156 515.9996337890625 L -268.0003051757812 515.9996337890625 L -268.0003051757812 511.0002136230469 L -268.0003051757812 510.0002136230469 L -267.0003051757812 510.0002136230469 L -259.4705810546875 510.0002136230469 C -257.7470092773438 506.8223571777344 -255.2293548583984 504.1366882324219 -252.1578369140625 502.2067565917969 C -248.8194274902344 500.1091613769531 -244.961181640625 499.0004272460938 -241.0001983642578 499.0004272460938 C -237.0392150878906 499.0004272460938 -233.1809844970703 500.1091613769531 -229.8425750732422 502.2067565917969 C -226.7710418701172 504.1366882324219 -224.2533721923828 506.8223571777344 -222.5298156738281 510.0002136230469 L -207 510.0002136230469 L -206 510.0002136230469 L -206 511.0002136230469 L -206 530.0001220703125 L -206 531.0001220703125 L -207 531.0001220703125 L -223.1085815429688 531.0001220703125 C -224.9043426513672 533.9147338867188 -227.3981781005859 536.3629150390625 -230.3508911132812 538.1033935546875 C -233.565673828125 539.9984130859375 -237.2481536865234 541 -241.0001983642578 541 Z" stroke="none"/>
      <path d="M -241.0001983642578 540 C -233.5970764160156 540 -227.1340026855469 535.9784545898438 -223.6760711669922 530.0001220703125 L -207 530.0001220703125 L -207 511.0002136230469 L -223.1349639892578 511.0002136230469 C -226.4286193847656 504.475341796875 -233.19189453125 500.0004272460938 -241.0001983642578 500.0004272460938 C -248.8085174560547 500.0004272460938 -255.57177734375 504.475341796875 -258.8654174804688 511.0002136230469 L -267.0003051757812 511.0002136230469 L -267.0003051757812 516.9996337890625 L -275.0003967285156 516.9996337890625 L -275.0003967285156 524.9996948242188 L -267.0003051757812 524.9996948242188 L -267.0003051757812 530.0001220703125 L -258.3243408203125 530.0001220703125 C -254.8664093017578 535.9784545898438 -248.4033355712891 540 -241.0001983642578 540 M -241.0001983642578 542 C -244.9307250976562 542 -248.7887878417969 540.9505004882812 -252.1573181152344 538.9649047851562 C -255.0881805419922 537.2373046875 -257.58740234375 534.843994140625 -259.4418029785156 532.0001220703125 L -269.0003051757812 532.0001220703125 L -269.0003051757812 526.9996948242188 L -277.0003967285156 526.9996948242188 L -277.0003967285156 514.9996337890625 L -269.0003051757812 514.9996337890625 L -269.0003051757812 509.0002136230469 L -260.0565185546875 509.0002136230469 C -258.263916015625 505.8996276855469 -255.737060546875 503.274658203125 -252.6898498535156 501.3600463867188 C -249.1918792724609 499.1621704101562 -245.149658203125 498.0004272460938 -241.0001983642578 498.0004272460938 C -236.8507537841797 498.0004272460938 -232.8085327148438 499.1621704101562 -229.310546875 501.3600463867188 C -226.2633361816406 503.274658203125 -223.7364807128906 505.8996276855469 -221.9438629150391 509.0002136230469 L -205 509.0002136230469 L -205 532.0001220703125 L -222.5586090087891 532.0001220703125 C -224.4129943847656 534.843994140625 -226.9122314453125 537.2373046875 -229.8430938720703 538.9649047851562 C -233.2116241455078 540.9505004882812 -237.0696868896484 542 -241.0001983642578 542 Z" stroke="none" fill="#fff"/>
    </g>
  </g>
</svg>
