<svg xmlns="http://www.w3.org/2000/svg" xmlns:xlink="http://www.w3.org/1999/xlink" width="56" height="56" viewBox="0 0 56 56">
  <defs>
    <clipPath id="clip-weapon-enemy-spawner">
      <rect width="56" height="56"/>
    </clipPath>
  </defs>
  <g id="weapon-enemy-spawner" clip-path="url(#clip-weapon-enemy-spawner)">
    <path id="Union_55" data-name="Union 55" d="M-412.324,924.874a17.426,17.426,0,0,1-4.381-7.4c-1.316-1.218-2.789-2-4.062-1.27-3.223,1.856-4.1,3.3-4.1,3.3s-.449-3.687.319-5.88,2.218-3.924,6.363-7.032c1.017-.762,1.87-1.38,2.58-1.879a17.532,17.532,0,0,1,3.284-4.588A17.2,17.2,0,0,1-400.041,895a17.2,17.2,0,0,1,12.284,5.126,17.435,17.435,0,0,1,4.381,7.4c1.316,1.218,2.789,2,4.062,1.27,3.223-1.856,4.1-3.3,4.1-3.3s.449,3.686-.319,5.879-2.218,3.924-6.363,7.032c-1.017.762-1.87,1.38-2.58,1.879a17.521,17.521,0,0,1-3.284,4.588A17.2,17.2,0,0,1-400.041,930,17.2,17.2,0,0,1-412.324,924.874Z" transform="translate(428.541 -884)" stroke="#fff" stroke-width="2"/>
  </g>
</svg>
