<svg xmlns="http://www.w3.org/2000/svg" xmlns:xlink="http://www.w3.org/1999/xlink" width="56" height="56" viewBox="0 0 56 56">
  <defs>
    <clipPath id="clip-weapon-snubcannon">
      <rect width="56" height="56"/>
    </clipPath>
  </defs>
  <g id="weapon-snubcannon" clip-path="url(#clip-weapon-snubcannon)">
    <g id="Union_1" data-name="Union 1" transform="translate(290 -721)">
      <path d="M -261.5003967285156 762.000244140625 C -264.8391418457031 762.000244140625 -267.9781494140625 760.7000122070312 -270.3391418457031 758.3389892578125 C -272.7001342773438 755.9779663085938 -274.0003967285156 752.8389892578125 -274.0003967285156 749.500244140625 C -274.0003967285156 746.1611328125 -272.7001342773438 743.0220336914062 -270.3391418457031 740.6611938476562 C -267.978271484375 738.3003540039062 -264.8392639160156 737.000244140625 -261.5003967285156 737.000244140625 C -257.3197631835938 737.000244140625 -253.4335784912109 739.0771484375 -251.1048126220703 742.555908203125 L -250.8077697753906 742.9996337890625 L -250.2738189697266 742.9996337890625 L -242.0001983642578 742.9996337890625 L -242.0001983642578 755.9999389648438 L -250.2734832763672 755.9999389648438 L -250.8075103759766 755.9999389648438 L -251.1045379638672 756.4437255859375 C -253.4331512451172 759.9230346679688 -257.3194580078125 762.000244140625 -261.5003967285156 762.000244140625 Z" stroke="none"/>
      <path d="M -261.5003967285156 738.000244140625 C -264.5721435546875 738.000244140625 -267.4600524902344 739.1963500976562 -269.632080078125 741.3682861328125 C -271.8041687011719 743.540283203125 -273.0003967285156 746.4282836914062 -273.0003967285156 749.500244140625 C -273.0003967285156 752.5718994140625 -271.8041381835938 755.459716796875 -269.6320190429688 757.6318969726562 C -267.4598999023438 759.8040161132812 -264.572021484375 761.000244140625 -261.5003967285156 761.000244140625 C -257.6538391113281 761.000244140625 -254.0782165527344 759.0889282226562 -251.9356079101562 755.8875732421875 L -251.341552734375 754.9999389648438 L -243.0001831054688 754.9999389648438 L -243.0001831054688 743.9996337890625 L -251.3417358398438 743.9996337890625 L -251.935791015625 743.1121826171875 C -254.0785522460938 739.9112548828125 -257.6541137695312 738.000244140625 -261.5003967285156 738.000244140625 M -261.5003967285156 736.000244140625 C -256.8196105957031 736.000244140625 -252.6954956054688 738.3820190429688 -250.2738037109375 741.9996337890625 L -241.0001831054688 741.9996337890625 L -241.0001831054688 756.9999389648438 L -250.2734985351562 756.9999389648438 C -252.695068359375 760.6181640625 -256.8191528320312 763.000244140625 -261.5003967285156 763.000244140625 C -268.9559936523438 763.000244140625 -275.0003967285156 756.955810546875 -275.0003967285156 749.500244140625 C -275.0003967285156 742.043701171875 -268.9559936523438 736.000244140625 -261.5003967285156 736.000244140625 Z" stroke="none" fill="#fff"/>
    </g>
  </g>
</svg>
