<svg xmlns="http://www.w3.org/2000/svg" xmlns:xlink="http://www.w3.org/1999/xlink" width="56" height="56" viewBox="0 0 56 56">
  <defs>
    <clipPath id="clip-weapon-pd">
      <rect width="56" height="56"/>
    </clipPath>
  </defs>
  <g id="weapon-pd" clip-path="url(#clip-weapon-pd)">
    <g id="Union_2" data-name="Union 2" transform="translate(289 -648)">
      <path d="M -261 691.0003051757812 C -262.7557373046875 691.0003051757812 -264.4757995605469 690.699462890625 -266.1123962402344 690.1061401367188 C -267.6937561035156 689.5328979492188 -269.1595764160156 688.701171875 -270.4690856933594 687.6340942382812 C -272.8840026855469 685.6663208007812 -274.6358337402344 682.978515625 -275.4605712890625 679.9996337890625 L -281.9996948242188 679.9996337890625 L -282.9996948242188 679.9996337890625 L -282.9996948242188 678.9996337890625 L -282.9996948242188 666.9999389648438 L -282.9996948242188 665.9999389648438 L -281.9996948242188 665.9999389648438 L -272.1804809570312 665.9999389648438 C -269.3323974609375 662.8165893554688 -265.284423828125 661.0004272460938 -261 661.0004272460938 C -257.3679504394531 661.0004272460938 -253.8633575439453 662.3154296875 -251.1317596435547 664.7032470703125 C -248.6467742919922 666.8754272460938 -246.9520416259766 669.7958374023438 -246.3001098632812 673.0001220703125 L -237.9996032714844 673.0001220703125 L -236.9996032714844 673.0001220703125 L -236.9996032714844 674.0001220703125 L -236.9996032714844 678.9996337890625 L -236.9996032714844 679.9996337890625 L -237.9996032714844 679.9996337890625 L -246.5394287109375 679.9996337890625 C -247.3641662597656 682.978515625 -249.1160125732422 685.6663208007812 -251.5309295654297 687.6340942382812 C -252.8404388427734 688.701171875 -254.3062438964844 689.5328979492188 -255.8876190185547 690.1061401367188 C -257.5242004394531 690.699462890625 -259.2442626953125 691.0003051757812 -261 691.0003051757812 Z" stroke="none"/>
      <path d="M -261 690.0003051757812 C -254.2978363037109 690.0003051757812 -248.6951904296875 685.2900390625 -247.3217620849609 678.9996337890625 L -237.9996032714844 678.9996337890625 L -237.9996032714844 674.0001220703125 L -247.1414337158203 674.0001220703125 C -248.1120300292969 667.2157592773438 -253.9471893310547 662.0004272460938 -261 662.0004272460938 C -265.3048400878906 662.0004272460938 -269.1558837890625 663.9431762695312 -271.7241516113281 666.9999389648438 L -281.9996948242188 666.9999389648438 L -281.9996948242188 678.9996337890625 L -274.67822265625 678.9996337890625 C -273.3048095703125 685.2900390625 -267.7021789550781 690.0003051757812 -261 690.0003051757812 M -261 692.0003051757812 C -262.872314453125 692.0003051757812 -264.70703125 691.6793212890625 -266.4532165527344 691.0463256835938 C -268.1403503417969 690.4346313476562 -269.7040405273438 689.5474243164062 -271.1007690429688 688.4093017578125 C -273.4764709472656 686.4735107421875 -275.25048828125 683.884033203125 -276.2019653320312 680.9996337890625 L -283.9996948242188 680.9996337890625 L -283.9996948242188 664.9999389648438 L -272.6191101074219 664.9999389648438 C -269.60107421875 661.8111572265625 -265.4184875488281 660.0004272460938 -261 660.0004272460938 C -257.1258544921875 660.0004272460938 -253.3874969482422 661.4031982421875 -250.4736175537109 663.9503173828125 C -248.03173828125 666.0848999023438 -246.3052215576172 668.8972778320312 -245.5047760009766 672.0001220703125 L -235.9996032714844 672.0001220703125 L -235.9996032714844 680.9996337890625 L -245.7980194091797 680.9996337890625 C -246.7494964599609 683.884033203125 -248.5235290527344 686.4735107421875 -250.8992309570312 688.4093017578125 C -252.2959747314453 689.5474243164062 -253.8596496582031 690.4346313476562 -255.5467987060547 691.0463256835938 C -257.29296875 691.6793212890625 -259.127685546875 692.0003051757812 -261 692.0003051757812 Z" stroke="none" fill="#fff"/>
    </g>
  </g>
</svg>
