<svg xmlns="http://www.w3.org/2000/svg" xmlns:xlink="http://www.w3.org/1999/xlink" width="72" height="72" viewBox="0 0 72 72">
  <defs>
    <clipPath id="clip-weapon-large-railgun">
      <rect width="72" height="72"/>
    </clipPath>
  </defs>
  <g id="weapon-large-railgun" clip-path="url(#clip-weapon-large-railgun)">
    <g id="Union_7" data-name="Union 7" transform="translate(280.5 -394)">
      <path d="M -227.5001068115234 447.0003967285156 L -228.5001068115234 447.0003967285156 L -260.4996032714844 447.0003967285156 L -261.4996032714844 447.0003967285156 L -261.4996032714844 446.0003967285156 L -261.4996032714844 440.3948669433594 C -262.9725646972656 439.5423889160156 -264.2527770996094 438.3828125 -265.2474365234375 436.9996032714844 L -269.4996032714844 436.9996032714844 L -270.4996032714844 436.9996032714844 L -270.4996032714844 435.9996032714844 L -270.4996032714844 434.1663513183594 L -274.5185546875 436.3763732910156 L -276.0003967285156 437.1912536621094 L -276.0003967285156 435.5001220703125 L -276.0003967285156 424.5003051757812 L -276.0003967285156 422.8091735839844 L -274.5185546875 423.6240539550781 L -270.4996032714844 425.8340759277344 L -270.4996032714844 423.9999084472656 L -270.4996032714844 422.9999084472656 L -269.4996032714844 422.9999084472656 L -265.247314453125 422.9999084472656 C -264.2524108886719 421.6171264648438 -262.9722900390625 420.4578247070312 -261.4996032714844 419.6055603027344 L -261.4996032714844 414 L -261.4996032714844 413 L -260.4996032714844 413 L -228.5001068115234 413 L -227.5001068115234 413 L -227.5001068115234 414 L -227.5001068115234 422.9999084472656 L -210.5001068115234 422.9999084472656 L -209.5001068115234 422.9999084472656 L -209.5001068115234 423.9999084472656 L -209.5001068115234 435.9996032714844 L -209.5001068115234 436.9996032714844 L -210.5001068115234 436.9996032714844 L -227.5001068115234 436.9996032714844 L -227.5001068115234 438.0002136230469 L -215.4996032714844 438.0002136230469 L -214.4996032714844 438.0002136230469 L -214.4996032714844 439.0002136230469 L -214.4996032714844 441 L -214.4996032714844 442 L -215.4996032714844 442 L -227.5001068115234 442 L -227.5001068115234 446.0003967285156 L -227.5001068115234 447.0003967285156 Z" stroke="none"/>
      <path d="M -228.5001068115234 446.0003967285156 L -228.5001068115234 441 L -215.4996032714844 441 L -215.4996032714844 439.0002136230469 L -228.5001068115234 439.0002136230469 L -228.5001068115234 435.9996032714844 L -210.5001068115234 435.9996032714844 L -210.5001068115234 423.9999084472656 L -228.5001068115234 423.9999084472656 L -228.5001068115234 414 L -260.4996032714844 414 L -260.4996032714844 420.19921875 C -262.216796875 421.0776062011719 -263.6730041503906 422.3934020996094 -264.7206115722656 423.9999084472656 L -269.4996032714844 423.9999084472656 L -269.4996032714844 427.5252075195312 L -275.0003967285156 424.5003051757812 L -275.0003967285156 435.5001220703125 L -269.4996032714844 432.4752197265625 L -269.4996032714844 435.9996032714844 L -264.7206115722656 435.9996032714844 C -263.6730041503906 437.6070251464844 -262.216796875 438.9228210449219 -260.4996032714844 439.8012084960938 L -260.4996032714844 446.0003967285156 L -228.5001068115234 446.0003967285156 M -226.5001068115234 448.0003967285156 L -262.4996032714844 448.0003967285156 L -262.4996032714844 440.9563293457031 C -263.7397766113281 440.1620788574219 -264.8394775390625 439.1611022949219 -265.7472229003906 437.9996032714844 L -271.4996032714844 437.9996032714844 L -271.4996032714844 435.8574829101562 L -277.0003967285156 438.8823852539062 L -277.0003967285156 421.1180419921875 L -271.4996032714844 424.1429443359375 L -271.4996032714844 421.9999084472656 L -265.7469482421875 421.9999084472656 C -264.8390808105469 420.8388061523438 -263.7395629882812 419.838134765625 -262.4996032714844 419.0440979003906 L -262.4996032714844 412 L -226.5001068115234 412 L -226.5001068115234 421.9999084472656 L -208.5001068115234 421.9999084472656 L -208.5001068115234 437.9996032714844 L -213.4996032714844 437.9996032714844 L -213.4996032714844 443 L -226.5001068115234 443 L -226.5001068115234 448.0003967285156 Z" stroke="none" fill="#fff"/>
    </g>
  </g>
</svg>
