<svg xmlns="http://www.w3.org/2000/svg" xmlns:xlink="http://www.w3.org/1999/xlink" width="56" height="56" viewBox="0 0 56 56">
  <defs>
    <clipPath id="clip-weapon-quadlaser">
      <rect width="56" height="56"/>
    </clipPath>
  </defs>
  <g id="weapon-quadlaser" clip-path="url(#clip-weapon-quadlaser)">
    <g id="Union_1" data-name="Union 1" transform="translate(290 -721)">
      <path d="M -261.9999084472656 763.0001220703125 C -265.4722900390625 763.0001220703125 -268.7369384765625 761.6478271484375 -271.1924743652344 759.1922607421875 C -273.6479797363281 756.7367553710938 -275.0003051757812 753.4721069335938 -275.0003051757812 749.9996948242188 C -275.0003051757812 746.5274047851562 -273.6479797363281 743.262939453125 -271.1925048828125 740.8076782226562 C -268.7370300292969 738.3524169921875 -265.4723815917969 737.000244140625 -261.9999084472656 737.000244140625 C -260.3287048339844 737.000244140625 -258.7023620605469 737.3125 -257.1660461425781 737.9283447265625 L -256.9869384765625 738.0001220703125 L -256.7939758300781 738.0001220703125 L -236.9998016357422 738.0001220703125 L -236.9998016357422 744.000244140625 L -248.9195098876953 744.000244140625 L -250.3725738525391 744.000244140625 L -249.8535461425781 745.357421875 C -249.7370758056641 745.6619873046875 -249.6310882568359 745.9741821289062 -249.5384979248047 746.2852783203125 L -249.3258209228516 747.0001220703125 L -248.5800323486328 747.0001220703125 L -236.9998016357422 747.0001220703125 L -236.9998016357422 753.000244140625 L -248.5802764892578 753.000244140625 L -249.3259582519531 753.000244140625 L -249.5387115478516 753.7149047851562 C -249.6314544677734 754.0264892578125 -249.7374877929688 754.3386840820312 -249.8538360595703 754.6428833007812 L -250.3728942871094 756.0001220703125 L -248.9198150634766 756.0001220703125 L -236.9998016357422 756.0001220703125 L -236.9998016357422 762.000244140625 L -256.7943420410156 762.000244140625 L -256.9872741699219 762.000244140625 L -257.1663513183594 762.072021484375 C -258.7029418945312 762.6878662109375 -260.3291931152344 763.0001220703125 -261.9999084472656 763.0001220703125 Z" stroke="none"/>
      <path d="M -261.9999084472656 738.000244140625 C -265.2052612304688 738.000244140625 -268.2188110351562 739.2484130859375 -270.4854125976562 741.5147705078125 C -272.7520141601562 743.7811889648438 -274.0003051757812 746.7944946289062 -274.0003051757812 749.9996948242188 C -274.0003051757812 753.2049560546875 -272.7520141601562 756.218505859375 -270.4853515625 758.4851684570312 C -268.2186889648438 760.7518310546875 -265.2052001953125 762.0001220703125 -261.9999084472656 762.0001220703125 C -260.4572143554688 762.0001220703125 -258.9561157226562 761.7120361328125 -257.5383911132812 761.143798828125 L -257.1802062988281 761.000244140625 L -237.9998168945312 761.000244140625 L -237.9998168945312 757.0001220703125 L -251.8257446289062 757.0001220703125 L -250.7879028320312 754.2858276367188 C -250.6804809570312 754.0048828125 -250.5826416015625 753.7167358398438 -250.4971008300781 753.429443359375 L -250.0715026855469 752.000244140625 L -237.9998168945312 752.000244140625 L -237.9998168945312 748.0001220703125 L -250.0716247558594 748.0001220703125 L -250.4969787597656 746.5704956054688 C -250.5823669433594 746.2835083007812 -250.6801147460938 745.9955444335938 -250.7875366210938 745.7146606445312 L -251.8256225585938 743.000244140625 L -237.9998168945312 743.000244140625 L -237.9998168945312 739.0001220703125 L -257.1798706054688 739.0001220703125 L -257.5381164550781 738.8565063476562 C -258.9555969238281 738.288330078125 -260.4567565917969 738.000244140625 -261.9999084472656 738.000244140625 M -261.9999084472656 736.000244140625 C -260.159912109375 736.000244140625 -258.4034118652344 736.35498046875 -256.7939758300781 737.0001220703125 L -235.9998168945312 737.0001220703125 L -235.9998168945312 745.000244140625 L -248.9194946289062 745.000244140625 C -248.7943115234375 745.3275756835938 -248.6807861328125 745.6614379882812 -248.5800170898438 746.0001220703125 L -235.9998168945312 746.0001220703125 L -235.9998168945312 754.000244140625 L -248.5802612304688 754.000244140625 C -248.6810913085938 754.3388671875 -248.7946166992188 754.6727294921875 -248.9197998046875 755.0001220703125 L -235.9998168945312 755.0001220703125 L -235.9998168945312 763.000244140625 L -256.7943420410156 763.000244140625 C -258.4034118652344 763.6451416015625 -260.1603698730469 764.0001220703125 -261.9999084472656 764.0001220703125 C -269.7318115234375 764.0001220703125 -276.0003051757812 757.7316284179688 -276.0003051757812 749.9996948242188 C -276.0003051757812 742.267822265625 -269.7318115234375 736.000244140625 -261.9999084472656 736.000244140625 Z" stroke="none" fill="#fff"/>
    </g>
  </g>
</svg>
