<svg xmlns="http://www.w3.org/2000/svg" xmlns:xlink="http://www.w3.org/1999/xlink" width="56" height="56" viewBox="0 0 56 56">
  <defs>
    <clipPath id="clip-weapon-torpedo">
      <rect width="56" height="56"/>
    </clipPath>
  </defs>
  <g id="weapon-torpedo" clip-path="url(#clip-weapon-torpedo)">
    <g id="Union_52" data-name="Union 52" transform="translate(430 -603)">
      <path d="M -401.4999084472656 644.0003051757812 C -403.8633728027344 644.0003051757812 -406.1641540527344 643.3377075195312 -408.1535339355469 642.0841064453125 C -410.0906066894531 640.863525390625 -411.6560668945312 639.1386108398438 -412.6806640625 637.0958862304688 L -412.9428405761719 636.5731811523438 L -413.5269470214844 636.54541015625 L -423.9998168945312 636.0467529296875 L -423.9998168945312 626.9539184570312 L -413.5270385742188 626.4550170898438 L -412.9429321289062 626.4271850585938 L -412.6807556152344 625.904541015625 C -411.6561889648438 623.86181640625 -410.0907287597656 622.136962890625 -408.1535949707031 620.9163818359375 C -406.1642150878906 619.6629028320312 -403.8634033203125 619.0003051757812 -401.4999084472656 619.0003051757812 C -399.3447875976562 619.0003051757812 -397.2204284667969 619.5574340820312 -395.3565368652344 620.6115112304688 C -393.5479736328125 621.63427734375 -392.0079040527344 623.1058959960938 -390.9027709960938 624.8672485351562 L -390.5920715332031 625.3624877929688 L -390.0081176757812 625.3346557617188 L -384.0003967285156 625.0484619140625 L -384.0003967285156 627.3980102539062 L -384.0003967285156 628.1868286132812 L -383.2332763671875 628.3705444335938 C -381.9065551757812 628.688232421875 -380.7958679199219 629.1854858398438 -380.0212707519531 629.8086547851562 C -379.5553894042969 630.1834716796875 -379 630.7811889648438 -379 631.5003051757812 C -379 632.2190551757812 -379.5553894042969 632.8167724609375 -380.0213012695312 633.1915893554688 C -380.7959594726562 633.8148193359375 -381.9066467285156 634.3121948242188 -383.2333374023438 634.6299438476562 L -384.0003967285156 634.8136596679688 L -384.0003967285156 635.6024169921875 L -384.0003967285156 637.9512329101562 L -390.0079345703125 637.6652221679688 L -390.5919494628906 637.6373901367188 L -390.9026489257812 638.1326904296875 C -392.0076904296875 639.8943481445312 -393.5476989746094 641.3661499023438 -395.3562316894531 642.3889770507812 C -397.2201232910156 643.443115234375 -399.3445434570312 644.0003051757812 -401.4999084472656 644.0003051757812 Z" stroke="none"/>
      <path d="M -401.4999084472656 643.0003051757812 C -399.5167236328125 643.0003051757812 -397.5625305175781 642.4879150390625 -395.8485107421875 641.5185546875 C -394.1841430664062 640.5772705078125 -392.7668151855469 639.22265625 -391.7497863769531 637.601318359375 L -391.12841796875 636.6107177734375 L -385.0003967285156 636.9025268554688 L -385.0003967285156 634.02490234375 L -383.4662475585938 633.6574096679688 C -382.299560546875 633.3779907226562 -381.2987365722656 632.9358520507812 -380.6481018066406 632.4124145507812 C -380.2422790527344 632.0859375 -380 631.7449951171875 -380 631.5003051757812 C -380 630.9650268554688 -381.1016235351562 629.9092407226562 -383.4661254882812 629.343017578125 L -385.0003967285156 628.9756469726562 L -385.0003967285156 626.0972290039062 L -391.1284484863281 626.38916015625 L -391.7498474121094 625.3987426757812 C -392.7669677734375 623.777587890625 -394.1843566894531 622.4232177734375 -395.8487854003906 621.48193359375 C -397.5628051757812 620.5126342773438 -399.5169372558594 620.0003051757812 -401.4999084472656 620.0003051757812 C -403.6744995117188 620.0003051757812 -405.7909545898438 620.609619140625 -407.6205139160156 621.762451171875 C -409.4033508300781 622.8858032226562 -410.8440551757812 624.47314453125 -411.7868957519531 626.3528442382812 L -412.3112487792969 627.3982543945312 L -422.9998168945312 627.9074096679688 L -422.9998168945312 635.0932006835938 L -412.3111572265625 635.6021728515625 L -411.7868041992188 636.6475830078125 C -410.8439636230469 638.5272827148438 -409.4032592773438 640.1146850585938 -407.6204223632812 641.2380981445312 C -405.7908935546875 642.3909301757812 -403.6744384765625 643.0003051757812 -401.4999084472656 643.0003051757812 M -401.4999084472656 645.0003051757812 C -406.7826232910156 645.0003051757812 -411.3569946289062 641.9652709960938 -413.5745239257812 637.5442504882812 L -424.9998168945312 637.000244140625 L -424.9998168945312 626.0004272460938 L -413.5746154785156 625.4561767578125 C -411.3570861816406 621.0350952148438 -406.7826232910156 618.0003051757812 -401.4999084472656 618.0003051757812 C -396.6763305664062 618.0003051757812 -392.4432067871094 620.5304565429688 -390.0556945800781 624.3358154296875 L -383.0003967285156 623.9996948242188 L -383.0003967285156 627.3980102539062 C -380.0517578125 628.1040649414062 -378 629.6751098632812 -378 631.5003051757812 C -378 633.3248901367188 -380.0517578125 634.8961791992188 -383.0003967285156 635.6024169921875 L -383.0003967285156 639 L -390.0555114746094 638.6640625 C -392.44287109375 642.4700317382812 -396.6758728027344 645.0003051757812 -401.4999084472656 645.0003051757812 Z" stroke="none" fill="#fff"/>
    </g>
  </g>
</svg>
