<svg xmlns="http://www.w3.org/2000/svg" xmlns:xlink="http://www.w3.org/1999/xlink" width="72" height="72" viewBox="0 0 72 72">
  <defs>
    <clipPath id="clip-weapon-large-beamer">
      <rect width="72" height="72"/>
    </clipPath>
  </defs>
  <g id="weapon-large-beamer" clip-path="url(#clip-weapon-large-beamer)">
    <g id="Subtraction_1" data-name="Subtraction 1" transform="translate(284 -321.542)">
      <path d="M -262.1313171386719 388.0828247070312 C -263.8674926757812 388.0828247070312 -265.4999389648438 387.4071044921875 -266.7279357910156 386.1801147460938 C -269.1432189941406 383.7637939453125 -269.2565002441406 379.9047546386719 -267.0679626464844 377.3544006347656 L -267.0819702148438 377.3403930664062 L -266.3744812011719 376.6330871582031 L -264.2831726074219 374.5422973632812 L -264.9996948242188 374.5422973632812 L -264.9996948242188 373.5422973632812 L -264.9996948242188 368.5420227050781 L -267.0003051757812 368.5420227050781 L -268.0003051757812 368.5420227050781 L -268.0003051757812 367.5420227050781 L -268.0003051757812 363.5415954589844 L -275.0003967285156 363.5415954589844 L -276.0003967285156 363.5415954589844 L -276.0003967285156 362.5415954589844 L -276.0003967285156 354.54150390625 L -276.0003967285156 353.54150390625 L -275.0003967285156 353.54150390625 L -268.0003051757812 353.54150390625 L -268.0003051757812 348.5421142578125 L -268.0003051757812 347.5421142578125 L -267.0003051757812 347.5421142578125 L -264.9996948242188 347.5421142578125 L -264.9996948242188 341.5419006347656 L -264.9996948242188 340.5419006347656 L -264.28271484375 340.5419006347656 L -266.37451171875 338.4501342773438 L -266.7011108398438 338.1235656738281 C -266.7102966308594 338.1144104003906 -266.7194519042969 338.1052551269531 -266.7285766601562 338.0960693359375 L -267.0626220703125 337.7620239257812 L -267.0510559082031 337.7497863769531 C -269.2568969726562 335.2019653320312 -269.1497802734375 331.3269653320312 -266.7274475097656 328.9036254882812 C -265.4998474121094 327.676025390625 -263.8676147460938 327.0000305175781 -262.1312866210938 327.0000305175781 C -260.5626220703125 327.0000305175781 -259.0790405273438 327.5516967773438 -257.9020080566406 328.5633850097656 L -257.888671875 328.550048828125 L -257.1815490722656 329.2571716308594 L -245.8969116210938 340.5419006347656 L -232.0001983642578 340.5419006347656 L -231.0001983642578 340.5419006347656 L -231.0001983642578 341.5419006347656 L -231.0001983642578 347.5421142578125 L -218.9997100830078 347.5421142578125 L -217.9997100830078 347.5421142578125 L -217.9997100830078 348.5421142578125 L -217.9997100830078 355.5422973632812 L -217.9997100830078 356.5422973632812 L -218.9997100830078 356.5422973632812 L -254.9996032714844 356.5422973632812 L -254.9996185302734 360.5417175292969 L -218.9997100830078 360.5417175292969 L -217.9997100830078 360.5417175292969 L -217.9997100830078 361.5417175292969 L -217.9997100830078 367.5420227050781 L -217.9997100830078 368.5420227050781 L -218.9997100830078 368.5420227050781 L -231.0001983642578 368.5420227050781 L -231.0001983642578 373.5422973632812 L -231.0001983642578 374.5422973632812 L -232.0001983642578 374.5422973632812 L -245.8977966308594 374.5422973632812 L -257.1815795898438 385.8261413574219 L -257.8887023925781 386.5332336425781 L -257.9021606445312 386.519775390625 C -259.08056640625 387.5319213867188 -260.5634155273438 388.0828247070312 -262.1313171386719 388.0828247070312 Z" stroke="none"/>
      <path d="M -262.1313171386719 387.0828247070312 C -260.6618041992188 387.0828247070312 -259.2806701660156 386.5110168457031 -258.2424011230469 385.4727172851562 C -258.1273803710938 385.3568115234375 -258.0133361816406 385.2323303222656 -257.9049377441406 385.102783203125 L -257.8887023925781 385.1190185546875 L -246.31201171875 373.5422973632812 L -232.0001983642578 373.5422973632812 L -232.0001983642578 367.5420227050781 L -218.9997100830078 367.5420227050781 L -218.9997100830078 361.5417175292969 L -255.9996185302734 361.5417175292969 L -255.9996032714844 355.5422973632812 L -218.9997100830078 355.5422973632812 L -218.9997100830078 348.5421142578125 L -232.0001983642578 348.5421142578125 L -232.0001983642578 341.5419006347656 L -246.3111267089844 341.5419006347656 L -257.888671875 329.9642639160156 L -257.9049072265625 329.9804992675781 C -258.0107421875 329.8540649414062 -258.1242980957031 329.7296142578125 -258.2424011230469 329.610595703125 C -259.2809753417969 328.572021484375 -260.6620483398438 328.0000305175781 -262.1312866210938 328.0000305175781 C -263.6005249023438 328.0000305175781 -264.9816284179688 328.572021484375 -266.0202026367188 329.610595703125 C -268.1646118164062 331.7558898925781 -268.1650390625 335.2454223632812 -266.0211181640625 337.3893127441406 C -265.9069519042969 337.5043334960938 -265.7827453613281 337.6183776855469 -265.6520690917969 337.726806640625 L -265.6674194335938 337.7430114746094 L -261.8684997558594 341.5419006347656 L -263.9996948242188 341.5419006347656 L -263.9996948242188 348.5421142578125 L -267.0003051757812 348.5421142578125 L -267.0003051757812 354.54150390625 L -275.0003967285156 354.54150390625 L -275.0003967285156 362.5415954589844 L -267.0003051757812 362.5415954589844 L -267.0003051757812 367.5420227050781 L -263.9996948242188 367.5420227050781 L -263.9996948242188 373.5422973632812 L -261.8684997558594 373.5422973632812 L -265.6674499511719 377.3402709960938 L -265.6512145996094 377.3565063476562 C -265.7792053222656 377.4635925292969 -265.9036560058594 377.5774536132812 -266.0211181640625 377.6949157714844 C -268.1650085449219 379.8388061523438 -268.1650085449219 383.3279113769531 -266.0211181640625 385.4727172851562 C -264.9819641113281 386.5110168457031 -263.6005249023438 387.0828247070312 -262.1313171386719 387.0828247070312 M -262.1313171386719 389.0828247070312 C -264.1344604492188 389.0828247070312 -266.0179138183594 388.3031921386719 -267.4347534179688 386.8875122070312 C -269.9957885742188 384.3253784179688 -270.3136291503906 380.3576354980469 -268.3892517089844 377.4477233886719 L -268.4964904785156 377.3405151367188 L -265.9996948242188 374.8443603515625 L -265.9996948242188 369.5420227050781 L -269.0003051757812 369.5420227050781 L -269.0003051757812 364.5415954589844 L -277.0003967285156 364.5415954589844 L -277.0003967285156 352.54150390625 L -269.0003051757812 352.54150390625 L -269.0003051757812 346.5421142578125 L -265.9996948242188 346.5421142578125 L -265.9996948242188 340.2391662597656 L -267.4071350097656 338.8317260742188 C -267.4172058105469 338.8217468261719 -267.4271850585938 338.8117370605469 -267.4371643066406 338.8016967773438 L -268.4578552246094 337.7810363769531 L -268.3610534667969 337.6788024902344 C -270.3167724609375 334.7650451660156 -270.0079345703125 330.7709655761719 -267.4347229003906 328.1966857910156 C -266.01806640625 326.780029296875 -264.1347351074219 326.0000305175781 -262.1312866210938 326.0000305175781 C -260.6375122070312 326.0000305175781 -259.2106018066406 326.4336242675781 -257.994140625 327.2413024902344 L -257.888671875 327.1358337402344 L -245.4826965332031 339.5419006347656 L -230.0001983642578 339.5419006347656 L -230.0001983642578 346.5421142578125 L -216.9997100830078 346.5421142578125 L -216.9997100830078 357.5422973632812 L -253.9996032714844 357.5422973632812 L -253.9996185302734 359.5417175292969 L -216.9997100830078 359.5417175292969 L -216.9997100830078 369.5420227050781 L -230.0001983642578 369.5420227050781 L -230.0001983642578 375.5422973632812 L -245.4835815429688 375.5422973632812 L -257.8887023925781 387.9474487304688 L -257.9942016601562 387.8419494628906 C -259.2104797363281 388.6493835449219 -260.6374206542969 389.0828247070312 -262.1313171386719 389.0828247070312 Z" stroke="none" fill="#fff"/>
    </g>
  </g>
</svg>
