<svg xmlns="http://www.w3.org/2000/svg" xmlns:xlink="http://www.w3.org/1999/xlink" width="56" height="56" viewBox="0 0 56 56">
  <defs>
    <clipPath id="clip-weapon-flakcannon">
      <rect width="56" height="56"/>
    </clipPath>
  </defs>
  <g id="weapon-flakcannon" clip-path="url(#clip-weapon-flakcannon)">
    <g id="Union_51" data-name="Union 51" transform="translate(290 -616)">
      <path d="M -244.9999084472656 659.06591796875 L -252.1858367919922 653.9761352539062 L -252.8195953369141 653.5272827148438 L -253.411376953125 654.0301513671875 C -255.6650695800781 655.9452514648438 -258.5378112792969 656.9999389648438 -261.5003967285156 656.9999389648438 C -264.8391418457031 656.9999389648438 -267.9781188964844 655.69970703125 -270.3391418457031 653.3386840820312 C -272.7001342773438 650.9776611328125 -274.0003967285156 647.8386840820312 -274.0003967285156 644.4999389648438 C -274.0003967285156 641.1611938476562 -272.7001342773438 638.0221557617188 -270.3391418457031 635.6611938476562 C -267.9781494140625 633.3001708984375 -264.8391418457031 631.9999389648438 -261.5003967285156 631.9999389648438 C -258.7818298339844 631.9999389648438 -256.1973266601562 632.8573608398438 -254.0262908935547 634.4794311523438 L -253.4434356689453 634.9149169921875 L -252.8497314453125 634.494384765625 L -244.9999084472656 628.93408203125 L -244.9999084472656 659.06591796875 Z" stroke="none"/>
      <path d="M -245.9999084472656 657.1322021484375 L -245.9999084472656 630.8678588867188 L -253.4591369628906 636.1514892578125 L -254.6248321533203 635.280517578125 C -256.6217041015625 633.78857421875 -258.9992370605469 632.9999389648438 -261.5003967285156 632.9999389648438 C -264.5720520019531 632.9999389648438 -267.4598999023438 634.1961669921875 -269.6320190429688 636.3682861328125 C -271.8041381835938 638.5404052734375 -273.0003967285156 641.4282836914062 -273.0003967285156 644.4999389648438 C -273.0003967285156 647.5715942382812 -271.8041381835938 650.4594116210938 -269.6320190429688 652.631591796875 C -267.4598999023438 654.8037109375 -264.572021484375 655.9999389648438 -261.5003967285156 655.9999389648438 C -258.7747802734375 655.9999389648438 -256.1320190429688 655.02978515625 -254.0589294433594 653.2681274414062 L -252.8753356933594 652.2623291015625 L -245.9999084472656 657.1322021484375 M -243.9999084472656 660.9996337890625 L -252.7638397216797 654.7921752929688 C -255.1184387207031 656.7930297851562 -258.1680908203125 657.9999389648438 -261.5003967285156 657.9999389648438 C -268.9559936523438 657.9999389648438 -275.0003967285156 651.9555053710938 -275.0003967285156 644.4999389648438 C -275.0003967285156 637.0443115234375 -268.9559936523438 630.9999389648438 -261.5003967285156 630.9999389648438 C -258.4734802246094 630.9999389648438 -255.6792144775391 631.9961547851562 -253.4277496337891 633.6783447265625 L -243.9999084472656 627.0003051757812 L -243.9999084472656 660.9996337890625 Z" stroke="none" fill="#fff"/>
    </g>
  </g>
</svg>
