<svg xmlns="http://www.w3.org/2000/svg" xmlns:xlink="http://www.w3.org/1999/xlink" width="72" height="72" viewBox="0 0 72 72">
  <defs>
    <clipPath id="clip-weapon-large-wavemotiongun">
      <rect width="72" height="72"/>
    </clipPath>
  </defs>
  <g id="weapon-large-wavemotiongun" clip-path="url(#clip-weapon-large-wavemotiongun)">
    <path id="Subtraction_17" data-name="Subtraction 17" d="M-344.132,368.632a6.458,6.458,0,0,1-4.6-1.9,6.481,6.481,0,0,1-1.73-3.078l-2.724,2.724-.347.347-.007.007-.006.007-.346.346-.014-.014a6.489,6.489,0,0,1-4.23,1.564,6.458,6.458,0,0,1-4.6-1.9,6.521,6.521,0,0,1-.321-8.846l-.012-.012.269-.269.032-.032.032-.033.034-.034.03-.03.291-.29,5.181-5.181H-372V338h15v-7h3v-4h34v4h8v3.613a10.113,10.113,0,0,0-1.5-.112,10.011,10.011,0,0,0-10,10,10.011,10.011,0,0,0,10,10,10.108,10.108,0,0,0,1.5-.112V358h-8v3h-13.809l-5.374,5.373-.325.326-.031.03-.372.373-.014-.015A6.489,6.489,0,0,1-344.132,368.632Z" transform="translate(373 -308)" stroke="#fff" stroke-width="2"/>
  </g>
</svg>
