<svg xmlns="http://www.w3.org/2000/svg" xmlns:xlink="http://www.w3.org/1999/xlink" width="56" height="56" viewBox="0 0 56 56">
  <defs>
    <clipPath id="clip-weapon-heavyturbolaser">
      <rect width="56" height="56"/>
    </clipPath>
  </defs>
  <g id="weapon-heavyturbolaser" clip-path="url(#clip-weapon-heavyturbolaser)">
    <g id="Union_1" data-name="Union 1" transform="translate(290 -721)">
      <path d="M -261.5003967285156 762.000244140625 C -263.13720703125 762.000244140625 -264.7283935546875 761.6888427734375 -266.229736328125 761.0747680664062 L -266.4117126464844 761.0003051757812 L -266.6083374023438 761.0003051757812 L -278.9999084472656 761.0003051757812 L -278.9999084472656 758.9996948242188 L -278.9999084472656 757.9996948242188 L -279.9999084472656 757.9996948242188 L -283.0003967285156 757.9996948242188 L -283.0003967285156 740.9998168945312 L -279.9999084472656 740.9998168945312 L -278.9999084472656 740.9998168945312 L -278.9999084472656 739.9998168945312 L -278.9999084472656 738.0001220703125 L -266.6086730957031 738.0001220703125 L -266.4120178222656 738.0001220703125 L -266.2300109863281 737.9256591796875 C -264.7290649414062 737.3115844726562 -263.1377868652344 737.000244140625 -261.5003967285156 737.000244140625 C -259.179443359375 737.000244140625 -256.9144592285156 737.6403198242188 -254.9503326416016 738.8512573242188 L -254.7090148925781 739 L -254.4255218505859 739 L -242.0001983642578 739 L -242.0001983642578 745.0001220703125 L -248.4585113525391 745.0001220703125 L -249.7613830566406 745.0001220703125 L -249.4244995117188 746.2586669921875 C -249.1431121826172 747.3099975585938 -249.0004119873047 748.400634765625 -249.0004119873047 749.500244140625 C -249.0004119873047 750.5996704101562 -249.1431274414062 751.6902465820312 -249.4245758056641 752.7417602539062 L -249.7614593505859 754.0003051757812 L -248.4585876464844 754.0003051757812 L -242.0001983642578 754.0003051757812 L -242.0001983642578 760.0004272460938 L -254.4258880615234 760.0004272460938 L -254.7093353271484 760.0004272460938 L -254.9506378173828 760.149169921875 C -256.9151000976562 761.3601684570312 -259.1799926757812 762.000244140625 -261.5003967285156 762.000244140625 Z" stroke="none"/>
      <path d="M -261.5003967285156 761.000244140625 C -259.3654174804688 761.000244140625 -257.2820129394531 760.4115600585938 -255.4753875732422 759.2979125976562 L -254.9927978515625 759.0004272460938 L -243.0001983642578 759.0004272460938 L -243.0001983642578 755.0003051757812 L -251.0643463134766 755.0003051757812 L -250.3905639648438 752.483154296875 C -250.1316833496094 751.5159912109375 -250.0004119873047 750.5123901367188 -250.0004119873047 749.500244140625 C -250.0004119873047 748.4879150390625 -250.1316528320312 747.4843139648438 -250.3905029296875 746.5172729492188 L -251.0642547607422 744.0001220703125 L -243.0001983642578 744.0001220703125 L -243.0001983642578 740 L -254.9924926757812 740 L -255.4751281738281 739.7024536132812 C -257.2813720703125 738.5888671875 -259.3648986816406 738.000244140625 -261.5003967285156 738.000244140625 C -263.0072937011719 738.000244140625 -264.4711608886719 738.2865600585938 -265.8513793945312 738.8511962890625 L -266.2153930664062 739.0001220703125 L -277.9999084472656 739.0001220703125 L -277.9999084472656 741.9998168945312 L -282.0003967285156 741.9998168945312 L -282.0003967285156 756.9996948242188 L -277.9999084472656 756.9996948242188 L -277.9999084472656 760.0003051757812 L -266.2151184082031 760.0003051757812 L -265.8511352539062 760.149169921875 C -264.4705505371094 760.7139282226562 -263.0067443847656 761.000244140625 -261.5003967285156 761.000244140625 M -261.5003967285156 763.000244140625 C -263.3078918457031 763.000244140625 -265.0327758789062 762.644775390625 -266.6083374023438 762.0003051757812 L -279.9999084472656 762.0003051757812 L -279.9999084472656 758.9996948242188 L -284.0003967285156 758.9996948242188 L -284.0003967285156 739.9998168945312 L -279.9999084472656 739.9998168945312 L -279.9999084472656 737.0001220703125 L -266.6086730957031 737.0001220703125 C -265.0327758789062 736.3554077148438 -263.308349609375 736.000244140625 -261.5003967285156 736.000244140625 C -258.9058227539062 736.000244140625 -256.4828491210938 736.7316284179688 -254.4255218505859 738 L -241.0001983642578 738 L -241.0001983642578 746.0001220703125 L -248.4585113525391 746.0001220703125 C -248.1597290039062 747.1163940429688 -248.0004119873047 748.2896118164062 -248.0004119873047 749.500244140625 C -248.0004119873047 750.7106323242188 -248.1598052978516 751.8840942382812 -248.4585876464844 753.0003051757812 L -241.0001983642578 753.0003051757812 L -241.0001983642578 761.0004272460938 L -254.4258880615234 761.0004272460938 C -256.4829711914062 762.2684936523438 -258.9062805175781 763.000244140625 -261.5003967285156 763.000244140625 Z" stroke="none" fill="#fff"/>
    </g>
  </g>
</svg>
