<svg xmlns="http://www.w3.org/2000/svg" xmlns:xlink="http://www.w3.org/1999/xlink" width="188" height="163" viewBox="0 0 188 163">
  <defs>
    <clipPath id="clip-enemy-part-8">
      <rect width="188" height="163"/>
    </clipPath>
  </defs>
  <g id="enemy-part-8" clip-path="url(#clip-enemy-part-8)">
    <path id="Subtraction_43" data-name="Subtraction 43" d="M-1169.089,1377.758h0c-11.569,0-25.106-5-39.437-10.291l-.01,0c-10.778-3.979-21.921-8.093-33.174-10.474-8.466-1.792-13.7-3.972-16.483-6.86-2.508-2.607-2.785-5.565-3.078-8.7-.534-5.682-1.139-12.121-14.423-19.224-6.826-3.652-9.523-10.089-7.8-18.616,1.158-5.724,4.323-12.239,9.152-18.841a102.039,102.039,0,0,1,18.509-18.984,115.119,115.119,0,0,1,25.064-15.3,91.934,91.934,0,0,1,28.813-7.781c26.6-2.454,37.379-7.726,46.04-11.963a68.752,68.752,0,0,1,11.442-4.752A57.037,57.037,0,0,1-1128.36,1224c2.31,0,4.82.086,7.46.256,12.06.77,18.227,2.365,18.852,4.876s-4.251,5.523-8.969,8.428l-.012.007c-3.045,1.876-5.92,3.648-6.983,5.123-1.219,1.692-2.814,12.216-5.022,26.78l0,.019,0,.019c-2.561,16.888-6.068,40.016-10.7,59.919a195.325,195.325,0,0,1-7.891,26.673,65.367,65.367,0,0,1-4.693,9.753,23.485,23.485,0,0,1-5.234,6.315C-1156.355,1375.929-1162.087,1377.758-1169.089,1377.758Zm13.679-88.821c-1.167,0-2.415.046-3.709.137a84.01,84.01,0,0,0-12.381,1.9,103.208,103.208,0,0,0-14.148,4.3,72.91,72.91,0,0,0-22.46,13.371c-5.493,4.995-7.318,8.88-6.691,10.515a.776.776,0,0,0,.482.514,1.3,1.3,0,0,0,.428.063c1.609,0,4.99-2.019,9.271-4.575l.014-.009a142,142,0,0,1,22.333-11.379,204.307,204.307,0,0,1,22.576-6.858c3.692-.953,6.877-1.775,9.236-2.585,2.408-.825,3.759-1.577,4.13-2.3a.825.825,0,0,0,.031-.716c-.328-.856-1.69-1.552-3.833-1.958A28.928,28.928,0,0,0-1155.411,1288.937Zm-21.451-19.082a47.452,47.452,0,0,0-5.949.406,75.5,75.5,0,0,0-13.839,3.228,88.942,88.942,0,0,0-15.154,6.637,68.963,68.963,0,0,0-13.118,9.406,57.856,57.856,0,0,0-8.912,10.2,32.946,32.946,0,0,0-4.5,9.115c-.725,2.573-.725,4.712,0,6.024a1.548,1.548,0,0,0,1.083.9,1.5,1.5,0,0,0,.256.021c1.864,0,5.212-2.99,9.451-6.776l.007-.007c5.441-4.86,12.893-11.517,22.531-16.861a175.869,175.869,0,0,1,24.213-10.6c7.346-2.75,13.148-4.921,13.981-7.178a1.656,1.656,0,0,0-.167-1.455c-.71-1.282-2.528-2.213-5.257-2.691A27.135,27.135,0,0,0-1176.862,1269.855Zm-25.688-16.169a44.625,44.625,0,0,0-8.657.942A73.281,73.281,0,0,0-1226,1259.39a83.585,83.585,0,0,0-15.521,8.9,65.094,65.094,0,0,0-12.639,12.057,57.321,57.321,0,0,0-7.763,12.721,36.043,36.043,0,0,0-3.067,11.161c-.261,3.188.2,5.7,1.345,7.277a2.175,2.175,0,0,0,1.651,1.077h.05c2.085,0,5.225-3.83,9.2-8.678l.01-.013c5.038-6.146,11.938-14.564,21.573-21.565,8.556-6.216,17.555-10.653,24.786-14.219l.024-.011.007,0c7.473-3.684,13.376-6.594,14.043-9.292a2.355,2.355,0,0,0-.5-2.016c-1.105-1.521-3.379-2.532-6.574-2.922A26.216,26.216,0,0,0-1202.549,1253.686Z" transform="translate(1285.993 -1219.879)"/>
    <g id="Group_53" data-name="Group 53" transform="matrix(0.891, 0.454, -0.454, 0.891, -36.781, -259.186)">
      <path id="Path_379" data-name="Path 379" d="M201.671,229.11C199.8,240.353,176,254.716,175.153,264.879c-.154,1.845-14.894,20.012-15.726,22.51" transform="matrix(0.883, -0.469, 0.469, 0.883, -78.238, 88.741)" fill="none" stroke="#000" stroke-linecap="round" stroke-linejoin="round" stroke-miterlimit="1.5" stroke-width="8" fill-rule="evenodd"/>
      <path id="Path_391" data-name="Path 391" d="M251.009,227.259c.961,2.405,9.081,45.173,29.294,51.91,15.447,5.15,15.5,3.365,31.144,7.71" transform="translate(-37.388 -5.354)" fill="none" stroke="#000" stroke-linecap="round" stroke-linejoin="round" stroke-miterlimit="1.5" stroke-width="4" fill-rule="evenodd"/>
      <path id="Path_397" data-name="Path 397" d="M218.324,217.327c27.416,27.416,54.911,53.553,56.428,52.794.963-.481,18.264-42.953,23.371-60.625" transform="translate(-30.278 -5.354)" fill="none" stroke="#000" stroke-linecap="round" stroke-linejoin="round" stroke-miterlimit="1.5" stroke-width="2" fill-rule="evenodd"/>
      <path id="Path_398" data-name="Path 398" d="M256.559,234.66c-1.269.846-11.967,18.248,15.726,10.792,18.4-4.954,32.115-18.98,31.144-21.893" transform="translate(-33.048 -5.354)" fill="none" stroke="#000" stroke-linecap="round" stroke-linejoin="round" stroke-miterlimit="1.5" stroke-width="2" fill-rule="evenodd"/>
      <path id="Path_399" data-name="Path 399" d="M199.821,236.51c37.134,35.717,50.171,34.883,67.111,26.21,2.164-1.107,16.807-8.6,28.639,2.776" transform="translate(-19.585 -26.321)" fill="none" stroke="#000" stroke-linecap="round" stroke-linejoin="round" stroke-miterlimit="1.5" stroke-width="2" fill-rule="evenodd"/>
    </g>
    <g id="Path_413" transform="matrix(-0.695, 0.719, -0.719, -0.695, 172.989, 117.626)">
      <path id="Path_423" data-name="Path 423" d="M12.527.017C18.989-.81,24.345,8.339,24.345,15.7S19.395,26.661,12.527,26.661A13.337,13.337,0,0,1-.514,13.414C-.514,6.056,6.066.844,12.527.017Z" transform="translate(0 0)"/>
    </g>
    <g id="Path_413-2" data-name="Path_413" transform="matrix(0.545, 0.839, -0.839, 0.545, 163.811, 74.706)">
      <path id="Path_423-2" data-name="Path 423" d="M12.527.017C18.989-.81,24.345,8.339,24.345,15.7S19.395,26.661,12.527,26.661A13.337,13.337,0,0,1-.514,13.414C-.514,6.056,6.066.844,12.527.017Z" transform="translate(0 0)"/>
    </g>
    <g id="Path_413-3" data-name="Path_413" transform="translate(158.662 146.795) rotate(153)">
      <path id="Path_423-3" data-name="Path 423" d="M12.527.017C18.989-.81,24.345,8.339,24.345,15.7S19.395,26.661,12.527,26.661A13.337,13.337,0,0,1-.514,13.414C-.514,6.056,6.066.844,12.527.017Z" transform="translate(0 0)"/>
    </g>
  </g>
</svg>
