<svg xmlns="http://www.w3.org/2000/svg" xmlns:xlink="http://www.w3.org/1999/xlink" width="170" height="146" viewBox="0 0 170 146">
  <defs>
    <clipPath id="clip-enemy-part-4">
      <rect width="170" height="146"/>
    </clipPath>
  </defs>
  <g id="enemy-part-4" clip-path="url(#clip-enemy-part-4)">
    <g id="Group_53" data-name="Group 53" transform="translate(-151.402 -134)">
      <path id="Path_379" data-name="Path 379" d="M201.671,229.11C199.8,240.353,176,254.716,175.153,264.879c-.154,1.845-14.894,20.012-15.726,22.51" transform="translate(-1.731 -26.321)" fill="none" stroke="#000" stroke-linecap="round" stroke-linejoin="round" stroke-miterlimit="1.5" stroke-width="8" fill-rule="evenodd"/>
      <path id="Path_380" data-name="Path 380" d="M272.285,222.017c.852,5.109,1.909,5.706,2.776,8.018,6.932,18.487,16.743,20.306,42.244,38.853,7.4,5.378,8.958.778,17.268,4.933" transform="translate(-22.772 -5.354)" fill="none" stroke="#000" stroke-linecap="round" stroke-linejoin="round" stroke-miterlimit="1.5" stroke-width="8" fill-rule="evenodd"/>
      <path id="Path_390" data-name="Path 390" d="M234.357,225.409c-13.385,1.673-44.741,30.388-62.9,39.47-4.169,2.085-8.708,1-12.642,4.934" transform="translate(-1.731 -26.321)" fill="none" stroke="#000" stroke-linecap="round" stroke-linejoin="round" stroke-miterlimit="1.5" stroke-width="4" fill-rule="evenodd"/>
      <path id="Path_391" data-name="Path 391" d="M251.009,227.259c.961,1.443,9.081,27.1,29.294,31.144,15.447,3.09,15.5,2.019,31.144,4.626" transform="translate(-22.772 -5.354)" fill="none" stroke="#000" stroke-linecap="round" stroke-linejoin="round" stroke-miterlimit="1.5" stroke-width="4" fill-rule="evenodd"/>
      <path id="Path_397" data-name="Path 397" d="M218.324,217.327c27.416,27.416,54.911,53.553,56.428,52.794.963-.481,18.264-42.953,23.371-60.625" transform="translate(-22.772 -5.354)" fill="none" stroke="#000" stroke-linecap="round" stroke-linejoin="round" stroke-miterlimit="1.5" stroke-width="2" fill-rule="evenodd"/>
      <path id="Path_398" data-name="Path 398" d="M256.559,234.66c-1.269.846-11.967,18.248,15.726,10.792,18.4-4.954,32.115-18.98,31.144-21.893" transform="translate(-22.772 -5.354)" fill="none" stroke="#000" stroke-linecap="round" stroke-linejoin="round" stroke-miterlimit="1.5" stroke-width="2" fill-rule="evenodd"/>
      <path id="Path_399" data-name="Path 399" d="M199.821,236.51c45.355,35.717,61.278,34.883,81.969,26.21,2.643-1.107,20.529-8.6,34.979,2.776" transform="translate(-4.969 -26.321)" fill="none" stroke="#000" stroke-linecap="round" stroke-linejoin="round" stroke-miterlimit="1.5" stroke-width="2" fill-rule="evenodd"/>
    </g>
    <g id="enemy-orb" transform="translate(48.3 -41.402)">
      <g id="Subtraction_32" transform="translate(802.899 -881.857)">
        <path id="Path_422" data-name="Path 422" d="M-774.215,984.443a28.11,28.11,0,0,1-8.482-1.22,20.258,20.258,0,0,1-6.371-3.3c-1.178-.238-2.352-.518-3.489-.833A41.642,41.642,0,0,1-805,973.474a28.355,28.355,0,0,1-8.716-9.134A24.532,24.532,0,0,1-817,951.865a33.294,33.294,0,0,1,3.284-13.994c1.494-3.2,19.857-18.478,18.464-20.035A34.964,34.964,0,0,1-778.091,913a51.752,51.752,0,0,1,28.158,8.191,32.155,32.155,0,0,1,9.573,9.592,23.657,23.657,0,0,1,3.674,12.682,29.38,29.38,0,0,1-3.674,13.787,43.7,43.7,0,0,1-8.465,11,17.849,17.849,0,0,1-6.2,10.54,21.837,21.837,0,0,1-6.423,3.538,37.54,37.54,0,0,1-9.145,1.934C-771.827,984.382-773.047,984.443-774.215,984.443Z" transform="translate(10 29)"/>
      </g>
      <g id="Path_413" transform="translate(10.92 48.019)">
        <path id="Path_423" data-name="Path 423" d="M10.5,0c5.457-.559,9.981,5.622,9.981,10.592S16.3,18,10.5,18-.514,14.022-.514,9.051,5.043.559,10.5,0Z"/>
      </g>
      <g id="Path_415" transform="matrix(0.891, 0.454, -0.454, 0.891, 35.883, 46.536)">
        <path id="Path_424" data-name="Path 424" d="M10.5,0c5.457-.559,9.981,5.622,9.981,10.592S16.3,18,10.5,18-.514,14.022-.514,9.051,5.043.559,10.5,0Z"/>
      </g>
      <g id="Path_416" transform="translate(77.694 74.16) rotate(39)">
        <path id="Path_425" data-name="Path 425" d="M10.5,0c5.457-.559,9.981,5.622,9.981,10.592S16.3,18,10.5,18-.514,14.022-.514,9.051,5.043.559,10.5,0Z"/>
      </g>
      <path id="Path_426" data-name="Path 426" d="M40.392,93.08c1.154,1.538,7.021,4.04,9.1,5.656,9.866,7.674,19.452,1.569,21.149,1.229,8.145-1.629,8.694-6.112,9.468-6.885" fill="none" stroke="#000" stroke-linecap="round" stroke-linejoin="round" stroke-miterlimit="1.5" stroke-width="8" fill-rule="evenodd"/>
      <path id="Path_427" data-name="Path 427" d="M95.6,51.52c2.706,4.058,4.017,3.553,4.181,8.484.192,5.766,3.248,11.843,1.23,13.525a5.751,5.751,0,0,0-1.968,4.058c-.4.4-3.956.6-4.3.615" transform="translate(-14.817 14.878)" fill="none" stroke="#000" stroke-linecap="round" stroke-linejoin="round" stroke-miterlimit="1.5" stroke-width="4" fill-rule="evenodd"/>
      <path id="Path_428" data-name="Path 428" d="M67.689,98.244c3.428,3.918,3.873,4.053,5.161,5.41,7.4.822,12.112,3.559,13.283.984,1.531-3.369,4.244-6.326,6.025-9.591,1.5-2.749,1.106-2.91,1.106-15.739" fill="none" stroke="#000" stroke-linecap="round" stroke-linejoin="round" stroke-miterlimit="1.5" stroke-width="4" fill-rule="evenodd"/>
      <path id="Path_429" data-name="Path 429" d="M59.7,102.793c1.2,1.6,14.613,15.153,20.78,5.9A21.71,21.71,0,0,0,84.288,95.17a26.942,26.942,0,0,0,1.107-2.459" fill="none" stroke="#000" stroke-linecap="round" stroke-linejoin="round" stroke-miterlimit="1.5" stroke-width="4" fill-rule="evenodd"/>
      <path id="Path_432" data-name="Path 432" d="M101.256,66.521c.4.033,2.67-1.15,5.78,2.582.449.041.9-.041,1.352,0,.091.008.164.082.246.123" transform="translate(-14.202 16.26)" fill="none" stroke="#000" stroke-linecap="round" stroke-linejoin="round" stroke-miterlimit="1.5" stroke-width="2" fill-rule="evenodd"/>
      <path id="Path_436" data-name="Path 436" d="M94.248,91.112c1.643-1.232,2.883-3.945,10.082-6.516,3.287-1.174,2.885-3.263,2.706-12.419" fill="none" stroke="#000" stroke-linecap="round" stroke-linejoin="round" stroke-miterlimit="1.5" stroke-width="1" fill-rule="evenodd"/>
      <path id="Path_437" data-name="Path 437" d="M66.213,99.474c.044.029,12.28,16.8,15.862,14.755,7.236-4.135,3.968-11.05,5.164-17.829.211-1.2.779-4.413,6.394-13.772" fill="none" stroke="#000" stroke-linecap="round" stroke-linejoin="round" stroke-miterlimit="1.5" stroke-width="1" fill-rule="evenodd"/>
      <path id="Path_438" data-name="Path 438" d="M79.985,98c1.12.776,3.413,4.189,8.361.615,3.159-2.282,8.945-8.635,9.345-16.231.172-3.272,1.085-2.855,3.811-4.672" fill="none" stroke="#000" stroke-linecap="round" stroke-linejoin="round" stroke-miterlimit="1.5" stroke-width="1" fill-rule="evenodd"/>
    </g>
  </g>
</svg>
