<svg xmlns="http://www.w3.org/2000/svg" xmlns:xlink="http://www.w3.org/1999/xlink" width="28" height="28" viewBox="0 0 28 28">
  <defs>
    <clipPath id="clip-enemy-shot-2">
      <rect width="28" height="28"/>
    </clipPath>
  </defs>
  <g id="enemy-shot-2" clip-path="url(#clip-enemy-shot-2)">
    <path id="Subtraction_33" data-name="Subtraction 33" d="M-1032.006,814.3l0,0-3.838-2.843c-.145.086-.29.166-.43.238a5.983,5.983,0,0,1-2.744.625c-2.67,0-5.427-1.542-6.145-3.439a6.244,6.244,0,0,1,.638-5.03L-1046,798l4.344,2.988a6.626,6.626,0,0,1,.827-.37,8.039,8.039,0,0,1,2.75-.552c2.012,0,3.6,1.042,4.99,3.28a5.4,5.4,0,0,1-.5,6.031l1.582,4.916Zm-5.787-12.326a2.916,2.916,0,0,0-.975.188,2.511,2.511,0,0,0-1.425,1.354,2.529,2.529,0,0,0-.129,1.884,2.751,2.751,0,0,0,2.463,1.445,2.092,2.092,0,0,0,.958-.217,2.639,2.639,0,0,0,1.327-1.6,2.1,2.1,0,0,0-.212-1.684A2.34,2.34,0,0,0-1037.793,801.97Z" transform="translate(1053.003 -791.43)"/>
    <path id="Path_490" data-name="Path 490" d="M3.128-2.552C4.859-2.552,6.4-.41,6.263,1.12A3.426,3.426,0,0,1,2.67,4.143C.805,3.881.132,2.65,0,.807A3.171,3.171,0,0,1,3.128-2.552Z" transform="matrix(-0.891, 0.454, -0.454, -0.891, 8.834, 4.869)"/>
    <path id="Path_491" data-name="Path 491" d="M3.128-2.552C4.859-2.552,6.4-.41,6.263,1.12A3.426,3.426,0,0,1,2.67,4.143C.805,3.881.132,2.65,0,.807A3.171,3.171,0,0,1,3.128-2.552Z" transform="matrix(-0.891, 0.454, -0.454, -0.891, 25.804, 22.879)"/>
  </g>
</svg>
