<svg xmlns="http://www.w3.org/2000/svg" xmlns:xlink="http://www.w3.org/1999/xlink" width="118" height="135" viewBox="0 0 118 135">
  <defs>
    <clipPath id="clip-enemy-part-6">
      <rect width="118" height="135"/>
    </clipPath>
  </defs>
  <g id="enemy-part-6" clip-path="url(#clip-enemy-part-6)">
    <g id="Group_53" data-name="Group 53" transform="translate(-164.756 -153.467)">
      <path id="Path_379" data-name="Path 379" d="M201.671,229.11C199.8,240.353,176,254.716,175.153,264.879c-.154,1.845-14.894,20.012-15.726,22.51" transform="translate(47.397 -51.321)" fill="none" stroke="#000" stroke-linecap="round" stroke-linejoin="round" stroke-miterlimit="1.5" stroke-width="8" fill-rule="evenodd"/>
      <path id="Path_391" data-name="Path 391" d="M251.009,227.259c.961,2.405,9.081,45.173,29.294,51.91,15.447,5.15,15.5,3.365,31.144,7.71" transform="translate(-37.388 -5.354)" fill="none" stroke="#000" stroke-linecap="round" stroke-linejoin="round" stroke-miterlimit="1.5" stroke-width="4" fill-rule="evenodd"/>
      <path id="Path_397" data-name="Path 397" d="M218.324,217.327c27.416,27.416,54.911,53.553,56.428,52.794.963-.481,18.264-42.953,23.371-60.625" transform="translate(-30.278 -5.354)" fill="none" stroke="#000" stroke-linecap="round" stroke-linejoin="round" stroke-miterlimit="1.5" stroke-width="2" fill-rule="evenodd"/>
      <path id="Path_398" data-name="Path 398" d="M256.559,234.66c-1.269.846-11.967,18.248,15.726,10.792,18.4-4.954,32.115-18.98,31.144-21.893" transform="translate(-33.048 -5.354)" fill="none" stroke="#000" stroke-linecap="round" stroke-linejoin="round" stroke-miterlimit="1.5" stroke-width="2" fill-rule="evenodd"/>
      <path id="Path_399" data-name="Path 399" d="M199.821,236.51c37.134,35.717,50.171,34.883,67.111,26.21,2.164-1.107,16.807-8.6,28.639,2.776" transform="translate(-19.585 -26.321)" fill="none" stroke="#000" stroke-linecap="round" stroke-linejoin="round" stroke-miterlimit="1.5" stroke-width="2" fill-rule="evenodd"/>
    </g>
    <path id="Path_462" data-name="Path 462" d="M-955.244,1004.864c-.007-23.333,59.423-72.446,58.038-67.807-2.005,6.806-4.077,16.533-2.562,24.21,1.007,5.1,3.472,8.726,7.325,10.8a17.086,17.086,0,0,0,8.171,1.983c6.645-.357,24.3-1.9,25.334,4.953.607,4.03,2.6,9.432,8.657,12.279a7.171,7.171,0,0,0,2.963.777c2.039,0-2.017,26.829-5.542,31.087a2.459,2.459,0,0,0-.573,1.871c.451,4.574-16.009,34.432-17.011,31.544-1.883-5.438-4.913-8.2-9.007-8.2a9.923,9.923,0,0,0-1.961.2c-.89.174-1.712.331-2.507.481l-.341.065c-8.831,1.67,7.458-14.8-12.919-18.727S-955.237,1028.2-955.244,1004.864Zm29.7-16.74c-3.6,0-7.539,2.218-8.1,6.453a27.037,27.037,0,0,0,.664,10.287c1.179,3.975,3.209,6.609,5.481,7.115a9.88,9.88,0,0,0,3.209.52h.018c4.62,0,9.808-3.1,10.494-8.284A13.412,13.412,0,0,0-915.3,996,20.712,20.712,0,0,0-920.6,989.8a7.7,7.7,0,0,0-4.948-1.672Zm24.177-8.726c-.559-.12-1.12.2-1.563.907-.781,1.664-.217,4.278,1.675,7.77,1.407,2.259,3.124,3.584,4.916,3.791.441.089.881-.179,1.226-.743a8.49,8.49,0,0,0,.641-4,7.707,7.707,0,0,0-1.753-4.613,7.935,7.935,0,0,0-5.142-3.121Zm-12.922-11.581c-1.245-.235-2.488.52-3.465,2.107-1.4,2.979-.882,7.06,1.533,12.127,1.745,2.977,3.951,4.617,6.231,4.627.966.181,1.929-.43,2.672-1.694a17.3,17.3,0,0,0,1.475-6.741c.04-2.92-.759-5.637-2.045-6.95-1.956-2.23-4.157-3.428-6.4-3.482Z" transform="translate(958 -934.129)"/>
  </g>
</svg>
