<svg xmlns="http://www.w3.org/2000/svg" xmlns:xlink="http://www.w3.org/1999/xlink" width="28" height="28" viewBox="0 0 28 28">
  <defs>
    <clipPath id="clip-enemy-shot-3">
      <rect width="28" height="28"/>
    </clipPath>
  </defs>
  <g id="enemy-shot-3" clip-path="url(#clip-enemy-shot-3)">
    <path id="Subtraction_35" data-name="Subtraction 35" d="M-1058.787,824.715l-2.207-6.594a8.018,8.018,0,0,1-2.11-.7l-6.68,6.549,5.007-7.712a4.035,4.035,0,0,1-.99-1.443c-.016-.043-.031-.086-.046-.13l-2.615-.509,2.505-2.25a7.282,7.282,0,0,1,.478-1.506L-1073,800.312l9.957,7.1a6.8,6.8,0,0,1,.859-.527l-.616-4.112,2.564,3.418a6.915,6.915,0,0,1,1.555-.19,5.44,5.44,0,0,1,.629.036l5.5-8.04-3.639,8.657a5.6,5.6,0,0,1,.978.725l5.372-2.6-3.893,4.429.024.038.023.038a4.762,4.762,0,0,1,.673,3.043l6.887,3.707-7.478-1.7a7.132,7.132,0,0,1-1.249,1.783l1.054,2.926-2.566-1.706c-.167.1-.339.2-.509.285a5.688,5.688,0,0,1-1.565.52l-.343,6.568Zm-4.434-13.772a1.247,1.247,0,0,0-.374.062.972.972,0,0,0-.583.545,1.689,1.689,0,0,0-.025,1.3,1.792,1.792,0,0,0,1.468,1.016.782.782,0,0,0,.359-.081,1.107,1.107,0,0,0,.547-.695,1.542,1.542,0,0,0-.166-1.206C-1062.376,811.243-1062.765,810.944-1063.221,810.944Z" transform="translate(1073.604 -797.368)"/>
  </g>
</svg>
