<svg xmlns="http://www.w3.org/2000/svg" xmlns:xlink="http://www.w3.org/1999/xlink" width="218" height="198" viewBox="0 0 218 198">
  <defs>
    <clipPath id="clip-enemy-part-3">
      <rect width="218" height="198"/>
    </clipPath>
  </defs>
  <g id="enemy-part-3" clip-path="url(#clip-enemy-part-3)">
    <g id="enemy-boss-Umbryx" transform="translate(-229.988 -129.668)">
      <path id="Path_338" data-name="Path 338" d="M296.492,256.125c9.216,2.3,37.279,19.419,45.067,6.438,4.366-7.277,2.361-8.566,9.826-21.008,3.609-6.014,10.764-8.989,11.182-9.827" fill="none" stroke="#000" stroke-linecap="round" stroke-linejoin="round" stroke-miterlimit="1.5" stroke-width="8" fill-rule="evenodd"/>
      <path id="Path_339" data-name="Path 339" d="M359.857,237.489c28.483-1.461,28.493-1.8,30.835-1.017,9.96,3.32,28.213.36,28.463.339" fill="none" stroke="#000" stroke-linecap="round" stroke-linejoin="round" stroke-miterlimit="1.5" stroke-width="8" fill-rule="evenodd"/>
      <path id="Path_342" data-name="Path 342" d="M292.765,263.919c.134,3.414,2.96,3.482-1.7,37.612" fill="none" stroke="#000" stroke-linecap="round" stroke-linejoin="round" stroke-miterlimit="1.5" stroke-width="8" fill-rule="evenodd"/>
      <path id="Path_343" data-name="Path 343" d="M282.938,262.563c6.114,14.265,11.643,17.784,22.7,32.53" fill="none" stroke="#000" stroke-linecap="round" stroke-linejoin="round" stroke-miterlimit="1.5" stroke-width="8" fill-rule="evenodd"/>
      <path id="Path_348" data-name="Path 348" d="M248.037,256.8c.612.556,5.172,12.939,64.72,11.521,6.906-.165,56.806-15.238,67.431-31.174" fill="none" stroke="#000" stroke-linecap="round" stroke-linejoin="round" stroke-miterlimit="1.5" stroke-width="4" fill-rule="evenodd"/>
      <path id="Path_349" data-name="Path 349" d="M276.839,251.72c-.564,21.416.766,21.429,10.843,40.323,5.085,9.534,1.422,9.911-4.4,18.976" fill="none" stroke="#000" stroke-linecap="round" stroke-linejoin="round" stroke-miterlimit="1.5" stroke-width="4" fill-rule="evenodd"/>
      <path id="Path_350" data-name="Path 350" d="M254.475,261.547a166.142,166.142,0,0,0,42.7,25.413c21.194,8.6,22.443,7.432,23.38,11.182" fill="none" stroke="#000" stroke-linecap="round" stroke-linejoin="round" stroke-miterlimit="1.5" stroke-width="4" fill-rule="evenodd"/>
      <path id="Path_351" data-name="Path 351" d="M401.535,234.1c-29.964,31.463-39.057,33.252-43.711,35.579-2.751-6.559-3-14.915-38.29-57.265" fill="none" stroke="#000" stroke-linecap="round" stroke-linejoin="round" stroke-miterlimit="1.5" stroke-width="4" fill-rule="evenodd"/>
      <path id="Path_358" data-name="Path 358" d="M281.922,266.63c-4.71,12.558-4.507,12.384-8.133,25.074-1.9,6.651.531,6.454,2.033,13.215" fill="none" stroke="#000" stroke-linecap="round" stroke-linejoin="round" stroke-miterlimit="1.5" stroke-width="2" fill-rule="evenodd"/>
      <path id="Path_359" data-name="Path 359" d="M288.021,272.729c.991,7.933-6.684,19.945-8.133,20.67-5.375,2.687-26.356.235-27.785,8.81" fill="none" stroke="#000" stroke-linecap="round" stroke-linejoin="round" stroke-miterlimit="1.5" stroke-width="2" fill-rule="evenodd"/>
      <path id="Path_360" data-name="Path 360" d="M298.525,261.886c-3.706,8.339-4.774,7.787-6.795,16.707,1.067.691,2,1.577,3.068,2.268.8.519.751.467,10.139,6.3,3.409,17.045,3.64,17.3,1.043,22.5" fill="none" stroke="#000" stroke-linecap="round" stroke-linejoin="round" stroke-miterlimit="1.5" stroke-width="2" fill-rule="evenodd"/>
      <path id="Path_361" data-name="Path 361" d="M291.409,262.563c10.192,3.4,11.352,23.889,19.992,26.769,11.957,3.986,10.693,5.918,25.486,18.2L336.476,310" fill="none" stroke="#000" stroke-linecap="round" stroke-linejoin="round" stroke-miterlimit="1.5" stroke-width="2" fill-rule="evenodd"/>
      <path id="Path_362" data-name="Path 362" d="M319.534,248.332c21.123,18.106,27.091,20.563,29.818,21.686,3.685,1.517,19.768-33.685,21.348-68.447" fill="none" stroke="#000" stroke-linecap="round" stroke-linejoin="round" stroke-miterlimit="1.5" stroke-width="2" fill-rule="evenodd"/>
      <path id="Path_363" data-name="Path 363" d="M391.369,208.024c-8.1,22.282-10.161,21.432-17.1,44.184-5.117,16.769-12.676,10.355-16.135,8.147-28.058-17.9-22-24.136-27.753-60.478" transform="translate(0 5.167)" fill="none" stroke="#000" stroke-linecap="round" stroke-linejoin="round" stroke-miterlimit="1.5" stroke-width="2" fill-rule="evenodd"/>
      <path id="Path_364" data-name="Path 364" d="M391.369,227.662c-1.245,7.248.759,7.482-3.727,21.686-4.8,15.208-22.285,49.8-28.463,35.241-16.855-39.731-18.768-66.94-24.058-88.1" fill="none" stroke="#000" stroke-linecap="round" stroke-linejoin="round" stroke-miterlimit="1.5" stroke-width="2" fill-rule="evenodd"/>
    </g>
    <path id="Subtraction_36" data-name="Subtraction 36" d="M-901.454,1750.435l-47.488-5.819a27.694,27.694,0,0,1-8.987-9.245,23.893,23.893,0,0,1-3.054-11.119c-.257-7.312,2.307-15.908,7.623-25.551,4.513-8.187,11.021-17.165,19.344-26.685a301.314,301.314,0,0,1,23.288-23.656c8.969-8.212,16.039-13.841,19.455-16.465a35.772,35.772,0,0,1,13.221-6.062A69.973,69.973,0,0,1-861.229,1624c13.122,0,29.17,2.622,47.7,7.795a383.491,383.491,0,0,1,44.469,15.628,26.718,26.718,0,0,1,10.4,7.408,23.257,23.257,0,0,1,4.795,10.119c2.483,11.63-2.434,25.555-7,35.188a127.86,127.86,0,0,1-8.693,15.407,80.781,80.781,0,0,1-7.541,9.946,5.817,5.817,0,0,1-4.5,1.716c-6.035,0-15.6-5.443-26.667-11.747l-.018-.01c-1.81-1.031-3.682-2.1-5.569-3.156-13.8-7.746-28.256-14.913-40.422-14.913a25.748,25.748,0,0,0-8.014,1.2c-18.773,6.145-25.4,22.681-30.721,35.968-2.7,6.74-5.033,12.561-8.44,15.884ZM-791,1668.32h0c-8.132,0-22.464,5.882-24.843,13.7a8.215,8.215,0,0,0,.738,6.432c1.265,2.381,3.643,4.755,7.071,7.055,9.675,6.494,17.66,7.857,22.655,7.857,6.071,0,11.294-2.052,14.33-5.63a11.645,11.645,0,0,0,2.616-9.713c-1.974-11.967-9.182-18.578-21.423-19.65-.356-.031-.739-.047-1.139-.047Z" transform="translate(967.942 -1616.153)"/>
  </g>
</svg>
