<svg xmlns="http://www.w3.org/2000/svg" xmlns:xlink="http://www.w3.org/1999/xlink" width="388" height="602" viewBox="0 0 388 602">
  <defs>
    <clipPath id="clip-enemy-boss-Myxolith">
      <rect width="388" height="602"/>
    </clipPath>
  </defs>
  <g id="enemy-boss-Myxolith" clip-path="url(#clip-enemy-boss-Myxolith)">
    <g id="enemy-boss-Myxolith-2" data-name="enemy-boss-Myxolith" transform="translate(-15 5)">
      <g id="monolith_derelict_silhouette" transform="translate(-67.832 3.734)">
        <g id="Subtraction_26" transform="translate(3092.87 535.734)">
          <path id="Path_291" data-name="Path 291" d="M-2759,38.533a80.986,80.986,0,0,1-18.87-2.266,113.155,113.155,0,0,1-37.25-17.5,133.118,133.118,0,0,1-29.75-29.5,130.85,130.85,0,0,1-21.25-44.5,160.905,160.905,0,0,1-4.75-50.5,204.059,204.059,0,0,1,5.55-35.519c-1.15,19.027-1,36.025.45,50.52,3.09,23.688,12.43,43.4,27,57,13.96,13.141,32.46,20.678,50.76,20.679a62.425,62.425,0,0,0,9.24-.679c19.81-2.972,36.94-13.907,47-30,5.73-9.076,9.44-19.968,11-32.375a136.289,136.289,0,0,0-1-37.625c-3.33-21.681-10.96-43.924-24-70A118.419,118.419,0,0,0-2767-211.358a83.961,83.961,0,0,0-25.88-16.375,27.1,27.1,0,0,0-10.13-1.945c-7.67,0-15.98,3.115-24.67,9.258-7.33,5.181-14.78,12.37-22.13,21.366.71-2.978,1.36-5.9,1.93-8.679,6.47-30.452,7.45-64.144,3-103a353.08,353.08,0,0,1-3.24-60.875c.79-24.724,4.15-52.241,10.24-84.125-8.9-11.88-14.07-21.214-16.24-29.375a33.618,33.618,0,0,1-1.14-6.9,25.308,25.308,0,0,1,.51-6.611,22.664,22.664,0,0,1,2.38-6.26,27.485,27.485,0,0,1,4.49-5.85,30.091,30.091,0,0,1,7.93-5.419l-.93-1.581,14-10,3.29,6.152c3.68-.827,7.73-1.539,12.02-2.117l4.69-7.035,5.7,5.936c3.94-.314,8.04-.529,12.18-.641l5.12-7.294,4.52,7.22c3.88.043,7.76.175,11.54.392l6.94-9.613,6.78,10.842,1.22.158c2.07.236,4.15.51,6.19.813l7.81-7.813,5.11,10.218c2.35.529,4.69,1.11,6.95,1.727l5.94-5.945,1.96,8.332c11.31,3.771,20.93,8.571,28.59,14.266,8.4,6.236,14.27,13.436,17.45,21.4a86.425,86.425,0,0,1,4.73,11.474,95.549,95.549,0,0,1,3.08,11.884,128.576,128.576,0,0,1,2.19,24.764c0,16.873-2.54,34.665-5,51.87v.008c-.9,5.123-1.81,10.2-2.7,15.1-3.07,16.977-5.98,33.012-7.58,48.692-1.8,17.578-1.71,32.259.29,46.2,3.26,21,9,40.065,14.54,58.5,3.15,10.47,6.41,21.3,9.14,32.254a260.107,260.107,0,0,1,6.32,34.245,237.924,237.924,0,0,1,.62,55.625,190.473,190.473,0,0,1-4.14,23.828,152.269,152.269,0,0,1-6.48,20.547,200.925,200.925,0,0,1-25,38.124,366.616,366.616,0,0,1-25,26.871C-2722.7,31.87-2740.38,38.533-2759,38.533Z"/>
        </g>
        <path id="Path_278" d="M248,358c-4,27-6,57-3,82,3,20,11,36,23,48,14,13,32,19,49,16a56.759,56.759,0,0,0,39-27c9-16,11-37,8-59-4-22-13-43-23-60-11-18-26-30-41-36-17-6-36,8-48,26Z"/>
        <path id="Path_282" d="M265,180c10-5,35-10,60-8s45,10,53,20" fill="none" stroke="#fff" stroke-linecap="round" stroke-width="6"/>
        <path id="Path_283" d="M258,210c12-6,40-12,70-10,27,2,46,12,54,24" fill="none" stroke="#fff" stroke-linecap="round" stroke-width="6"/>
        <path id="Path_284" d="M252,242c14-7,44-14,78-12,28,2,46,14,54,28" fill="none" stroke="#fff" stroke-linecap="round" stroke-width="6"/>
        <g id="Ellipse_113" transform="translate(233 360)">
          <ellipse id="Ellipse_120" data-name="Ellipse 120" cx="5" cy="8" rx="5" ry="8" fill="#111"/>
        </g>
        <g id="Ellipse_114" transform="translate(231 384)">
          <ellipse id="Ellipse_121" data-name="Ellipse 121" cx="5" cy="8" rx="5" ry="8" fill="#111"/>
        </g>
        <g id="Ellipse_115" transform="translate(230 408)">
          <ellipse id="Ellipse_122" data-name="Ellipse 122" cx="5" cy="8" rx="5" ry="8" fill="#111"/>
        </g>
        <g id="Ellipse_116" transform="translate(231 432)">
          <ellipse id="Ellipse_123" data-name="Ellipse 123" cx="5" cy="8" rx="5" ry="8" fill="#111"/>
        </g>
      </g>
      <path id="Path_292" data-name="Path 292" d="M208.987,458.559c-2.511,5.023-21.882,24.456-35.4,24.726-40.621.813-41.376-2.367-53.387,4.5C88.32,506,86.368,499.02,49.39,499.02" fill="none" stroke="#000" stroke-linecap="round" stroke-linejoin="round" stroke-miterlimit="1.5" stroke-width="10.3" fill-rule="evenodd"/>
      <path id="Path_293" data-name="Path 293" d="M234.837,482.723c-6.683.461-75.94,5.238-83.732.562-18.748-11.249-78.488-23.82-89.913-21.916" fill="none" stroke="#000" stroke-linecap="round" stroke-linejoin="round" stroke-miterlimit="1.5" stroke-width="10.3" fill-rule="evenodd"/>
      <path id="Path_294" data-name="Path 294" d="M205.615,451.816c-17.945.6-72.764-1.635-112.392,16.858-36.53,17.048-30.609,24.585-30.907,26.974" fill="none" stroke="#000" stroke-linecap="round" stroke-linejoin="round" stroke-miterlimit="1.5" stroke-width="10.3" fill-rule="evenodd"/>
      <path id="Path_295" data-name="Path 295" d="M247.762,477.666c-11.8,14.163-14.063,11.176-52.262,24.164-37.477,12.742-39.4-24.411-74.741-6.744" fill="none" stroke="#000" stroke-linecap="round" stroke-linejoin="round" stroke-miterlimit="1.5" stroke-width="10.3" fill-rule="evenodd"/>
      <path id="Path_296" data-name="Path 296" d="M216.854,465.865c-48.474,0-64.163-5.284-90.96,21.914-3.206,0-34.358,0-39.976,2.812" fill="none" stroke="#000" stroke-linecap="round" stroke-linejoin="round" stroke-miterlimit="1.5" stroke-width="8" fill-rule="evenodd"/>
      <path id="Path_297" data-name="Path 297" d="M230.341,455.187c-26.953,0-27.367-2.8-52.824,6.744-33.112,12.417-37.856,17.777-62.939-7.306-1.236-1.235-26.473-6.242-30.908-10.677" fill="none" stroke="#000" stroke-linecap="round" stroke-linejoin="round" stroke-miterlimit="1.5" stroke-width="8" fill-rule="evenodd"/>
      <path id="Path_298" data-name="Path 298" d="M225.846,493.963c-20.437,4.087-20.346,11.773-61.254,31.469-17.235,8.3-52.81-9.172-61.815-12.925" fill="none" stroke="#000" stroke-linecap="round" stroke-linejoin="round" stroke-miterlimit="1.5" stroke-width="8" fill-rule="evenodd"/>
      <path id="Path_299" data-name="Path 299" d="M254.506,490.591c-11.736,17.6-17.241,28.653-78.113,24.726-1.22-.079.906-3.352-12.363-8.991-31.155-13.241-33.621-5.167-44.83-3.789-8.5-16.884-8.787-16.424-18.109-32.739" fill="none" stroke="#000" stroke-linecap="round" stroke-linejoin="round" stroke-miterlimit="1.5" stroke-width="8" fill-rule="evenodd"/>
      <path id="Path_300" data-name="Path 300" d="M243.829,486.657c-10.768-.9-63.072,11.49-63.5,11.8-18.244,13.176-18.168,14.536-40.461,15.173-29.808.852-31.022,8.925-53.371-.182-1.086-14.287,2.3-16.361-5.073-20.048" fill="none" stroke="#000" stroke-linecap="round" stroke-linejoin="round" stroke-miterlimit="1.5" stroke-width="8" fill-rule="evenodd"/>
      <path id="Path_301" data-name="Path 301" d="M220.226,464.179c-50.473,2.294-97.278,42.682-99.738,48.309-17.425.837-19.363,5.111-31.76-7.286-7.338-7.338-3.939-11.522-14.049-14.049" fill="none" stroke="#000" stroke-linecap="round" stroke-linejoin="round" stroke-miterlimit="1.5" stroke-width="4" fill-rule="evenodd"/>
      <path id="Path_302" data-name="Path 302" d="M191.566,482.723c-43.393-3.254-42.914-4.987-85.418-13.487-1.135-.227-56.684-59.6-70.245-52.824" fill="none" stroke="#000" stroke-linecap="round" stroke-linejoin="round" stroke-miterlimit="1.5" stroke-width="4" fill-rule="evenodd"/>
      <path id="Path_303" data-name="Path 303" d="M203.367,449.568c-108.015,0-107.992.878-115.2-1.124-12.277-3.411-12.138-2.947-24.479-5.688-1.872-4.286-1.428-4.465-3.057-5.551" fill="none" stroke="#000" stroke-linecap="round" stroke-linejoin="round" stroke-miterlimit="1.5" stroke-width="4" fill-rule="evenodd"/>
      <path id="Path_304" data-name="Path 304" d="M206.177,468.112c-9.918.444-116,5.194-121.945,23.041-2.735,8.2-21.158-1.878-51.138,10.115" fill="none" stroke="#000" stroke-linecap="round" stroke-linejoin="round" stroke-miterlimit="1.5" stroke-width="4" fill-rule="evenodd"/>
      <path id="Path_305" data-name="Path 305" d="M89.29,502.954c-16.2-9.718-20.993-38.123-25.851-39.337-14.836-3.709-31.224-14.635-33.717-16.3" fill="none" stroke="#000" stroke-linecap="round" stroke-linejoin="round" stroke-miterlimit="1.5" stroke-width="4" fill-rule="evenodd"/>
      <path id="Path_306" data-name="Path 306" d="M172.46,508.573c-47.327,0-47.8-3.919-64.626,2.81-13.588,5.436-36.689,4.611-39.9,4.5" fill="none" stroke="#000" stroke-linecap="round" stroke-linejoin="round" stroke-miterlimit="1.5" stroke-width="4" fill-rule="evenodd"/>
      <path id="Path_307" data-name="Path 307" d="M141.552,523.184c-43.295-3.764-44.751-7.511-52.262,0-4.115,4.115-13.262,1.461-17.421,5.62" fill="none" stroke="#000" stroke-linecap="round" stroke-linejoin="round" stroke-miterlimit="1.5" stroke-width="4" fill-rule="evenodd"/>
      <path id="Path_308" data-name="Path 308" d="M148.857,513.631c-22.914,2.546-27.438,1.026-44.394,17.983-5.678,5.677-5.647,5.352-12.926,8.991" fill="none" stroke="#000" stroke-linecap="round" stroke-linejoin="round" stroke-miterlimit="1.5" stroke-width="2" fill-rule="evenodd"/>
      <path id="Path_309" data-name="Path 309" d="M115.14,453.5c-30.422-9.36-34.083-5.605-51.7-32.031" fill="none" stroke="#000" stroke-linecap="round" stroke-linejoin="round" stroke-miterlimit="1.5" stroke-width="2" fill-rule="evenodd"/>
      <path id="Path_310" data-name="Path 310" d="M103.339,466.426c-3.256-27.671-2.86-36.271-11.24-40.461" fill="none" stroke="#000" stroke-linecap="round" stroke-linejoin="round" stroke-miterlimit="1.5" stroke-width="2" fill-rule="evenodd"/>
      <path id="Path_311" data-name="Path 311" d="M116.826,485.533c-1.111.257-39.229,11.693-56.2,28.66" fill="none" stroke="#000" stroke-linecap="round" stroke-linejoin="round" stroke-miterlimit="1.5" stroke-width="2" fill-rule="evenodd"/>
      <path id="Path_312" data-name="Path 312" d="M190.442,495.086c-27.122,8.565-40.442,21.7-41.585,23.6-3.844,6.406-4.395,9.853-54.51,7.3" fill="none" stroke="#000" stroke-linecap="round" stroke-linejoin="round" stroke-miterlimit="1.5" stroke-width="2" fill-rule="evenodd"/>
      <path id="Path_313" data-name="Path 313" d="M219.1,491.153a108.476,108.476,0,0,1-45.518,8.991c-1.756-.046-60.072-44.705-95.534-26.974-7.743,3.872-31.55,1.7-39.337,2.81-7.288,1.041-6.884,1.452-14.049,2.248" fill="none" stroke="#000" stroke-linecap="round" stroke-linejoin="round" stroke-miterlimit="1.5" stroke-width="2" fill-rule="evenodd"/>
      <path id="Path_314" data-name="Path 314" d="M71.869,495.648c-2.352,4.7-21.023,13.718-24.164,16.859" fill="none" stroke="#000" stroke-linecap="round" stroke-linejoin="round" stroke-miterlimit="1.5" stroke-width="2" fill-rule="evenodd"/>
      <path id="Path_315" data-name="Path 315" d="M169.65,527.118c-21.231,1.062-20.4,5.332-41.585,6.744" fill="none" stroke="#000" stroke-linecap="round" stroke-linejoin="round" stroke-miterlimit="1.5" stroke-width="4" fill-rule="evenodd"/>
      <path id="Path_316" data-name="Path 316" d="M259,307.392,250.01,397.3" fill="none" stroke="#000" stroke-linecap="round" stroke-linejoin="round" stroke-miterlimit="1.5" stroke-width="4" fill-rule="evenodd"/>
      <path id="Path_317" data-name="Path 317" d="M296.091,335.49c-29.16,32.4-27.118,33.861-29.784,36.527" fill="none" stroke="#000" stroke-linecap="round" stroke-linejoin="round" stroke-miterlimit="1.5" stroke-width="4" fill-rule="evenodd"/>
      <path id="Path_318" data-name="Path 318" d="M308.454,367.522c-2.515,1.358-35.84,14.618-45.519,32.593" fill="none" stroke="#000" stroke-linecap="round" stroke-linejoin="round" stroke-miterlimit="1.5" stroke-width="8" fill-rule="evenodd"/>
      <path id="Path_319" data-name="Path 319" d="M280.918,323.689c-3.908,4.453-26.711,23.111-32.594,46.642" fill="none" stroke="#000" stroke-linecap="round" stroke-linejoin="round" stroke-miterlimit="1.5" stroke-width="2" fill-rule="evenodd"/>
      <path id="Path_320" data-name="Path 320" d="M256.754,386.066,309.578,350.1" fill="none" stroke="#000" stroke-linecap="round" stroke-linejoin="round" stroke-miterlimit="1.5" stroke-width="2" fill-rule="evenodd"/>
      <path id="Path_321" data-name="Path 321" d="M269.117,390.562c11.553,3.851,27.774-14.7,41.585,12.925" fill="none" stroke="#000" stroke-linecap="round" stroke-linejoin="round" stroke-miterlimit="1.5" stroke-width="2" fill-rule="evenodd"/>
      <path id="Path_322" data-name="Path 322" d="M260.687,404.049h48.891" fill="none" stroke="#000" stroke-linecap="round" stroke-linejoin="round" stroke-miterlimit="1.5" stroke-width="2" fill-rule="evenodd"/>
    </g>
    <g id="Ellipse_105" data-name="Ellipse 105" transform="translate(304.394 499.563)" fill="#fff" stroke="#000" stroke-width="3">
      <circle cx="10.5" cy="10.5" r="10.5" stroke="none"/>
      <circle cx="10.5" cy="10.5" r="12" fill="none"/>
    </g>
    <g id="Ellipse_127" data-name="Ellipse 127" transform="translate(325.394 439.563)" fill="#fff" stroke="#000" stroke-width="3">
      <circle cx="10.5" cy="10.5" r="10.5" stroke="none"/>
      <circle cx="10.5" cy="10.5" r="12" fill="none"/>
    </g>
    <g id="Ellipse_124" data-name="Ellipse 124" transform="translate(176.394 119.563)" fill="#fff" stroke="#000" stroke-width="3">
      <circle cx="10.5" cy="10.5" r="10.5" stroke="none"/>
      <circle cx="10.5" cy="10.5" r="12" fill="none"/>
    </g>
    <g id="Ellipse_125" data-name="Ellipse 125" transform="translate(183.5 73.563)" fill="#fff" stroke="#000" stroke-width="3">
      <circle cx="10.5" cy="10.5" r="10.5" stroke="none"/>
      <circle cx="10.5" cy="10.5" r="12" fill="none"/>
    </g>
    <g id="Ellipse_126" data-name="Ellipse 126" transform="translate(268.894 538.563)" fill="#fff" stroke="#000" stroke-width="3">
      <circle cx="10.5" cy="10.5" r="10.5" stroke="none"/>
      <circle cx="10.5" cy="10.5" r="12" fill="none"/>
    </g>
  </g>
</svg>
