<svg xmlns="http://www.w3.org/2000/svg" xmlns:xlink="http://www.w3.org/1999/xlink" width="161" height="183" viewBox="0 0 161 183">
  <defs>
    <clipPath id="clip-enemy-part-1">
      <rect width="161" height="183"/>
    </clipPath>
  </defs>
  <g id="enemy-part-1" clip-path="url(#clip-enemy-part-1)">
    <path id="Subtraction_39" data-name="Subtraction 39" d="M-937.922,1825.087h-.005c-8.154,0-15.269-1.45-21.148-4.311a33.4,33.4,0,0,1-8.585-5.965,35.305,35.305,0,0,1-6.7-9.02,89.2,89.2,0,0,1-7.911-22.64,157.154,157.154,0,0,1-3.124-24.715c-.876-16.546.279-32.655,1.122-44.418v-.036c.81-11.32,1.346-18.8-.474-19-.813-.09-1.815-.11-2.976-.134h-.029c-3.427-.07-8.12-.167-11.994-2.164a12.1,12.1,0,0,1-4.966-4.663,18.768,18.768,0,0,1-2.259-8.928c-.306-8.835,2.008-14.433,7.5-18.149a32.677,32.677,0,0,1,10.284-4.225,120.358,120.358,0,0,1,14.822-2.551,25.69,25.69,0,0,1,3.108-.167c5.863,0,14.844,1.422,25.972,4.112,10.395,2.514,22.25,6.055,33.381,9.971a240.211,240.211,0,0,1,29.447,12.276,67.284,67.284,0,0,1,9.7,5.893c2.521,1.924,4.023,3.653,4.466,5.137.42,1.414-.118,2.622-1.6,3.591-5.92,3.867-11.589,4.4-16.833,4.4-.508,0-1.019,0-1.392-.008h-.258c-.478,0-.88-.008-1.283-.008-2.524,0-4.7.113-5.715,1.5-1.037,1.407-.865,4.078.557,8.661,1.677,5.4,6.636,14.307,12.378,24.619l0,.006,0,.006c6.762,12.146,14.426,25.911,18.952,37.909,5.246,13.908,5.187,22.665-.182,26.771-5.083,3.889-16.153,10.5-30.621,16.348C-905.466,1819.7-922.121,1825.086-937.922,1825.087Zm-21.038-34.8a7.221,7.221,0,0,0-1.912.2c-2.277.682-3.423,1.641-4.195,5.517a7.59,7.59,0,0,0,.9,4.09,22.975,22.975,0,0,0,3.131,4.994c2.369,2.888,4.908,4.545,6.966,4.545a3.653,3.653,0,0,0,1.382-.266c2.326-.951,3.729-3.056,4.17-6.259a26.235,26.235,0,0,0-.393-7.933c-.347-2-2.344-3.161-3.958-3.785A18.068,18.068,0,0,0-958.961,1790.291Zm6.558-21.383a14.229,14.229,0,0,0-7,1.826c-1.693,1.3-2.349,2.469-1.76,5.943.228,1.343,1.967,3.339,4.431,5.087,2.641,1.873,5.451,2.991,7.518,2.991a3.828,3.828,0,0,0,2.711-.944c1.649-1.54,2.154-3.744,1.5-6.552a23.225,23.225,0,0,0-2.865-6.475C-948.794,1769.233-950.845,1768.908-952.4,1768.908Zm-1.189-17.831c-2.5,0-6.107,2.391-6.962,3.587-1,1.393-1.238,2.413-.046,4.776.765,1.517,4.923,3.062,8.24,3.062,1.509,0,3.489-.309,4.348-1.774a4.815,4.815,0,0,0-.281-5.149,16.187,16.187,0,0,0-3.555-3.937A2.616,2.616,0,0,0-953.591,1751.077Z" transform="translate(1012.495 -1647.795)"/>
  </g>
</svg>
