<svg xmlns="http://www.w3.org/2000/svg" xmlns:xlink="http://www.w3.org/1999/xlink" width="90" height="107" viewBox="0 0 90 107">
  <defs>
    <clipPath id="clip-enemy-part-10">
      <rect width="90" height="107"/>
    </clipPath>
  </defs>
  <g id="enemy-part-10" clip-path="url(#clip-enemy-part-10)">
    <path id="Subtraction_44" data-name="Subtraction 44" d="M-1499.59,1073.579h0a9.9,9.9,0,0,1-5.225-1.468,12.99,12.99,0,0,1-4.081-4.1,10.84,10.84,0,0,1-1.669-4.8,13.552,13.552,0,0,1,.519-5.3,16.909,16.909,0,0,1,7.089-9.308,16,16,0,0,1,8.73-2.609,15.578,15.578,0,0,1,11.564,4.98,6.482,6.482,0,0,1,1.36,5.406,18.507,18.507,0,0,1-3.514,7.909,26.545,26.545,0,0,1-6.846,6.621A14.675,14.675,0,0,1-1499.59,1073.579Zm-2.282-10.955a2.579,2.579,0,0,0-2.482,1.364,4.281,4.281,0,0,0-.01,3.329,5.2,5.2,0,0,0,2.835,3.036,10.228,10.228,0,0,0,3.8.808c1.6,0,2.74-.512,3.214-1.441a3.218,3.218,0,0,0-.416-3.16,8.207,8.207,0,0,0-3.216-2.852A8.617,8.617,0,0,0-1501.872,1062.624Z" transform="translate(1538.174 -985.271)"/>
    <g id="Path_413" transform="matrix(0.545, 0.839, -0.839, 0.545, 63.709, 68.036)">
      <path id="Path_423" data-name="Path 423" d="M12.527.017C18.989-.81,24.345,8.339,24.345,15.7S19.395,26.661,12.527,26.661A13.337,13.337,0,0,1-.514,13.414C-.514,6.056,6.066.844,12.527.017Z" transform="translate(0 0)"/>
    </g>
    <path id="Subtraction_45" data-name="Subtraction 45" d="M-1500.518,1058.768a20.1,20.1,0,0,1-4.145-.473,14.66,14.66,0,0,1-7.418-3.98c-1.891-1.978-2.688-4.219-2.243-6.312.838-3.941,5.965-5.7,10.676-5.7a19.4,19.4,0,0,1,2.355.143,9.294,9.294,0,0,1,6.393,4.017,9.967,9.967,0,0,1,1.9,7.5C-1493.663,1057.058-1496.332,1058.768-1500.518,1058.768Zm-3.209-13.807c-1.6,0-2.74.512-3.213,1.441a3.217,3.217,0,0,0,.416,3.159,8.208,8.208,0,0,0,3.217,2.853,8.614,8.614,0,0,0,3.729,1.084,2.581,2.581,0,0,0,2.482-1.364,4.283,4.283,0,0,0,.009-3.329,5.2,5.2,0,0,0-2.834-3.035A10.228,10.228,0,0,0-1503.727,1044.961Z" transform="translate(1580.505 -967.065)"/>
    <g id="Path_413-2" data-name="Path_413" transform="translate(34.212 46.086) rotate(152)">
      <path id="Path_423-2" data-name="Path 423" d="M5.489-.006c2.974-.47,5.44,4.728,5.44,8.908s-2.279,6.23-5.44,6.23-6-3.346-6-7.526A7.6,7.6,0,0,1,5.489-.006Z" transform="translate(0 0)"/>
    </g>
    <g id="Path_413-3" data-name="Path_413" transform="matrix(-0.588, 0.809, -0.809, -0.588, 31.779, 30.896)">
      <path id="Path_423-3" data-name="Path 423" d="M6.663-.006c3.556-.47,6.5,4.728,6.5,8.908s-2.725,6.23-6.5,6.23A7.464,7.464,0,0,1-.514,7.607C-.514,3.426,3.107.465,6.663-.006Z" transform="translate(0 0)"/>
    </g>
    <g id="Path_413-4" data-name="Path_413" transform="translate(23.148 30.354) rotate(-147)">
      <path id="Path_423-4" data-name="Path 423" d="M6.663-.006c3.556-.47,6.5,4.728,6.5,8.908s-2.725,6.23-6.5,6.23A7.464,7.464,0,0,1-.514,7.607C-.514,3.426,3.107.465,6.663-.006Z" transform="translate(0 0)"/>
    </g>
    <path id="Path_361" data-name="Path 361" d="M291.409,262.563c10.192,3.4,14.73,18.488,23.37,21.368,11.957,3.986,7.315,11.319,22.108,23.606L336.476,310" transform="translate(-270.114 -206.589)" fill="none" stroke="#000" stroke-linecap="round" stroke-linejoin="round" stroke-miterlimit="1.5" stroke-width="2" fill-rule="evenodd"/>
    <path id="Path_391" data-name="Path 391" d="M251.009,227.259c.961,2.405,9.081,45.173,29.294,51.91,15.447,5.15,5.649,6.628,21.292,10.974" transform="translate(-229.714 -202.34)" fill="none" stroke="#000" stroke-linecap="round" stroke-linejoin="round" stroke-miterlimit="1.5" stroke-width="4" fill-rule="evenodd"/>
    <path id="Path_436" data-name="Path 436" d="M94.248,91.112c1.643-1.232,2.883-3.945,10.082-6.516,3.287-1.174,2.885-3.263,2.706-12.419" transform="matrix(-0.259, 0.966, -0.966, -0.259, 138.145, -34.347)" fill="none" stroke="#000" stroke-linecap="round" stroke-linejoin="round" stroke-miterlimit="1.5" stroke-width="1" fill-rule="evenodd"/>
    <path id="Path_437" data-name="Path 437" d="M66.213,99.474c.044.029,12.28,16.8,15.862,14.755,7.236-4.135,3.968-11.05,5.164-17.829.211-1.2.779-4.413,6.394-13.772" transform="matrix(-0.259, 0.966, -0.966, -0.259, 138.145, -34.347)" fill="none" stroke="#000" stroke-linecap="round" stroke-linejoin="round" stroke-miterlimit="1.5" stroke-width="1" fill-rule="evenodd"/>
    <path id="Path_438" data-name="Path 438" d="M79.985,98c1.12.776,3.413,4.189,8.361.615,3.159-2.282,8.945-8.635,9.345-16.231.172-3.272,1.085-2.855,3.811-4.672" transform="matrix(-0.259, 0.966, -0.966, -0.259, 138.145, -34.347)" fill="none" stroke="#000" stroke-linecap="round" stroke-linejoin="round" stroke-miterlimit="1.5" stroke-width="1" fill-rule="evenodd"/>
  </g>
</svg>
