<svg xmlns="http://www.w3.org/2000/svg" xmlns:xlink="http://www.w3.org/1999/xlink" width="76" height="76" viewBox="0 0 76 76">
  <defs>
    <clipPath id="clip-spore">
      <rect width="76" height="76"/>
    </clipPath>
  </defs>
  <g id="spore" clip-path="url(#clip-spore)">
    <path id="Path_270" data-name="Path 270" d="M26.5-2.552C41.136-2.552,54.19,13.522,53,25S38.39,49.655,22.63,47.685,1.18,36.484.06,22.651,11.864-2.552,26.5-2.552Z" transform="translate(12.466 15.335)"/>
    <path id="Path_271" data-name="Path 271" d="M7.525-2.552c4.159,0,7.869,5.74,7.531,9.84s-4.152,8.805-8.631,8.1-6.1-4-6.414-8.941S3.366-2.552,7.525-2.552Z" transform="translate(31.911 36.286) rotate(-132)" fill="#fff"/>
    <path id="Path_272" data-name="Path 272" d="M3.889-2.552c2.152,0,4.071,3.232,3.9,5.54S5.638,7.945,3.32,7.549.166,5.3,0,2.515,1.737-2.552,3.889-2.552Z" transform="matrix(0.438, 0.899, -0.899, 0.438, 48.779, 48.393)" fill="#fff"/>
    <path id="Path_273" data-name="Path 273" d="M944.035-671.577a32.417,32.417,0,0,0-4.017,2.725c-2.983,2.22-4.026,3.456-4.578,5.023a11.734,11.734,0,0,0-.23,4.2,8.512,8.512,0,0,1,2.952-2.358c2.32-1.326,5.561,4.3,5.561,4.3Z" transform="translate(-928 708)"/>
    <path id="Path_275" data-name="Path 275" d="M944.035-671.577a32.417,32.417,0,0,0-4.017,2.725c-2.983,2.22-4.026,3.456-4.578,5.023a11.734,11.734,0,0,0-.23,4.2,8.512,8.512,0,0,1,2.952-2.358c2.32-1.326,5.561,4.3,5.561,4.3Z" transform="translate(1181.957 310.885) rotate(-132)"/>
    <path id="Path_274" data-name="Path 274" d="M944.035-671.577a32.417,32.417,0,0,0-4.017,2.725c-2.983,2.22-4.026,3.456-4.578,5.023a11.734,11.734,0,0,0-.23,4.2,8.512,8.512,0,0,1,2.952-2.358c2.32-1.326,5.561,4.3,5.561,4.3Z" transform="matrix(-0.788, 0.616, -0.616, -0.788, 382.403, -1085.829)"/>
  </g>
</svg>
